<svg xmlns="http://www.w3.org/2000/svg" xmlns:xlink="http://www.w3.org/1999/xlink" width="500" zoomAndPan="magnify" viewBox="0 0 375 374.999991" height="500" preserveAspectRatio="xMidYMid meet" version="1.0"><defs><g/><clipPath id="1835e1b603"><path d="M 39.535156 18.8125 L 335.464844 18.8125 L 335.464844 314.742188 L 39.535156 314.742188 Z M 39.535156 18.8125 " clip-rule="nonzero"/></clipPath><clipPath id="5b35fe30f2"><path d="M 187.5 18.8125 C 105.78125 18.8125 39.535156 85.058594 39.535156 166.777344 C 39.535156 248.496094 105.78125 314.742188 187.5 314.742188 C 269.21875 314.742188 335.464844 248.496094 335.464844 166.777344 C 335.464844 85.058594 269.21875 18.8125 187.5 18.8125 Z M 187.5 18.8125 " clip-rule="nonzero"/></clipPath><clipPath id="86f5d00c9c"><path d="M 57.035156 36.308594 L 317.964844 36.308594 L 317.964844 297.242188 L 57.035156 297.242188 Z M 57.035156 36.308594 " clip-rule="nonzero"/></clipPath><clipPath id="0489fcbff3"><path d="M 187.5 36.308594 C 115.445312 36.308594 57.035156 94.722656 57.035156 166.777344 C 57.035156 238.832031 115.445312 297.242188 187.5 297.242188 C 259.554688 297.242188 317.964844 238.832031 317.964844 166.777344 C 317.964844 94.722656 259.554688 36.308594 187.5 36.308594 Z M 187.5 36.308594 " clip-rule="nonzero"/></clipPath><clipPath id="233aa0e988"><path d="M 130 178 L 152 178 L 152 199 L 130 199 Z M 130 178 " clip-rule="nonzero"/></clipPath><clipPath id="0b6b1d8688"><path d="M 125.746094 184.4375 L 143.621094 172.199219 L 155.371094 189.355469 L 137.496094 201.597656 Z M 125.746094 184.4375 " clip-rule="nonzero"/></clipPath><clipPath id="08ded04950"><path d="M 136.855469 178.390625 L 136.863281 178.398438 C 139.484375 180.421875 143.113281 180.523438 145.847656 178.652344 C 146.492188 178.210938 147.351562 178.234375 147.972656 178.710938 C 148.589844 179.1875 148.835938 180.011719 148.574219 180.75 L 148.570312 180.753906 C 147.460938 183.878906 148.488281 187.363281 151.113281 189.390625 L 151.125 189.398438 C 151.746094 189.875 151.988281 190.695312 151.722656 191.433594 C 151.460938 192.171875 150.753906 192.652344 149.972656 192.632812 C 146.65625 192.535156 143.660156 194.585938 142.554688 197.710938 C 142.292969 198.449219 141.585938 198.933594 140.804688 198.910156 C 140.019531 198.890625 139.339844 198.367188 139.121094 197.617188 L 139.117188 197.605469 C 138.179688 194.425781 135.300781 192.207031 131.984375 192.109375 L 131.980469 192.109375 C 131.199219 192.089844 130.519531 191.566406 130.296875 190.8125 C 130.078125 190.0625 130.367188 189.253906 131.011719 188.8125 C 133.746094 186.941406 134.960938 183.519531 134.023438 180.34375 L 134.019531 180.332031 C 133.800781 179.582031 134.085938 178.773438 134.730469 178.332031 C 135.378906 177.890625 136.234375 177.914062 136.855469 178.390625 Z M 136.855469 178.390625 " clip-rule="nonzero"/></clipPath><clipPath id="1a7f24a5fe"><path d="M 253 185 L 276 185 L 276 207 L 253 207 Z M 253 185 " clip-rule="nonzero"/></clipPath><clipPath id="908edcd458"><path d="M 259.355469 180.539062 L 278.75 190.195312 L 269.476562 208.8125 L 250.085938 199.152344 Z M 259.355469 180.539062 " clip-rule="nonzero"/></clipPath><clipPath id="29a64907d0"><path d="M 270.042969 187.300781 L 270.042969 187.308594 C 269.550781 190.585938 271.226562 193.804688 274.191406 195.28125 C 274.894531 195.632812 275.289062 196.390625 275.175781 197.167969 C 275.0625 197.941406 274.460938 198.554688 273.6875 198.683594 L 273.683594 198.683594 C 270.414062 199.238281 267.871094 201.828125 267.378906 205.109375 L 267.375 205.121094 C 267.261719 205.894531 266.660156 206.507812 265.886719 206.636719 C 265.117188 206.765625 264.347656 206.382812 263.988281 205.6875 C 262.460938 202.746094 259.210938 201.128906 255.941406 201.679688 C 255.171875 201.8125 254.402344 201.429688 254.039062 200.734375 C 253.679688 200.042969 253.804688 199.195312 254.351562 198.636719 L 254.363281 198.625 C 256.683594 196.257812 257.21875 192.664062 255.691406 189.722656 L 255.6875 189.71875 C 255.328125 189.023438 255.453125 188.175781 256.003906 187.617188 C 256.550781 187.058594 257.398438 186.917969 258.097656 187.265625 C 261.0625 188.742188 264.644531 188.140625 266.960938 185.777344 L 266.96875 185.769531 C 267.519531 185.210938 268.363281 185.066406 269.0625 185.417969 C 269.765625 185.765625 270.160156 186.527344 270.042969 187.300781 Z M 270.042969 187.300781 " clip-rule="nonzero"/></clipPath><clipPath id="b68f8ddc35"><path d="M 146 252 L 169 252 L 169 275 L 146 275 Z M 146 252 " clip-rule="nonzero"/></clipPath><clipPath id="1cd74a4a35"><path d="M 152.335938 248.246094 L 171.726562 257.902344 L 162.457031 276.519531 L 143.066406 266.859375 Z M 152.335938 248.246094 " clip-rule="nonzero"/></clipPath><clipPath id="f0ee434f0f"><path d="M 163.023438 255.007812 L 163.019531 255.019531 C 162.53125 258.292969 164.207031 261.511719 167.171875 262.988281 C 167.871094 263.339844 168.269531 264.097656 168.15625 264.875 C 168.039062 265.648438 167.4375 266.261719 166.667969 266.390625 L 166.664062 266.390625 C 163.390625 266.945312 160.847656 269.535156 160.355469 272.816406 L 160.355469 272.832031 C 160.238281 273.605469 159.636719 274.214844 158.867188 274.34375 C 158.09375 274.472656 157.328125 274.089844 156.96875 273.394531 C 155.4375 270.457031 152.1875 268.835938 148.921875 269.386719 C 148.148438 269.519531 147.382812 269.136719 147.019531 268.441406 C 146.65625 267.75 146.78125 266.902344 147.332031 266.34375 L 147.339844 266.332031 C 149.664062 263.964844 150.199219 260.375 148.667969 257.429688 L 148.667969 257.425781 C 148.304688 256.730469 148.433594 255.882812 148.980469 255.324219 C 149.53125 254.765625 150.375 254.625 151.078125 254.972656 C 154.042969 256.449219 157.621094 255.847656 159.941406 253.484375 L 159.949219 253.476562 C 160.496094 252.917969 161.34375 252.777344 162.042969 253.125 C 162.742188 253.472656 163.136719 254.234375 163.023438 255.007812 Z M 163.023438 255.007812 " clip-rule="nonzero"/></clipPath><clipPath id="9e67467c61"><path d="M 151 60 L 173 60 L 173 82 L 151 82 Z M 151 60 " clip-rule="nonzero"/></clipPath><clipPath id="1023c98ad4"><path d="M 145.949219 74.355469 L 157.652344 56.125 L 175.152344 67.359375 L 163.449219 85.589844 Z M 145.949219 74.355469 " clip-rule="nonzero"/></clipPath><clipPath id="694344118a"><path d="M 153.828125 64.464844 L 153.839844 64.46875 C 157.042969 65.308594 160.425781 63.992188 162.214844 61.203125 C 162.636719 60.542969 163.4375 60.234375 164.195312 60.429688 C 164.953125 60.628906 165.496094 61.292969 165.542969 62.074219 L 165.542969 62.078125 C 165.734375 65.390625 168.039062 68.199219 171.246094 69.042969 L 171.257812 69.046875 C 172.015625 69.246094 172.558594 69.910156 172.601562 70.691406 C 172.644531 71.472656 172.183594 72.191406 171.453125 72.476562 C 168.363281 73.675781 166.402344 76.734375 166.597656 80.039062 C 166.644531 80.820312 166.179688 81.542969 165.453125 81.828125 C 164.722656 82.113281 163.894531 81.894531 163.398438 81.292969 L 163.390625 81.28125 C 161.289062 78.714844 157.773438 77.792969 154.683594 78.996094 L 154.679688 78.996094 C 153.949219 79.28125 153.121094 79.0625 152.625 78.457031 C 152.128906 77.851562 152.078125 76.996094 152.503906 76.335938 C 154.292969 73.546875 154.082031 69.925781 151.980469 67.363281 L 151.972656 67.355469 C 151.476562 66.75 151.429688 65.894531 151.851562 65.234375 C 152.273438 64.578125 153.070312 64.265625 153.828125 64.464844 Z M 153.828125 64.464844 " clip-rule="nonzero"/></clipPath><clipPath id="29b88c146a"><path d="M 185 125 L 207 125 L 207 148 L 185 148 Z M 185 125 " clip-rule="nonzero"/></clipPath><clipPath id="e9abeb55cb"><path d="M 179.636719 139.410156 L 191.335938 121.179688 L 208.839844 132.410156 L 197.136719 150.640625 Z M 179.636719 139.410156 " clip-rule="nonzero"/></clipPath><clipPath id="ff7ea0c3e7"><path d="M 187.515625 129.515625 L 187.527344 129.519531 C 190.730469 130.363281 194.113281 129.042969 195.902344 126.257812 C 196.324219 125.597656 197.121094 125.285156 197.878906 125.484375 C 198.636719 125.683594 199.183594 126.347656 199.226562 127.128906 L 199.226562 127.132812 C 199.421875 130.441406 201.726562 133.253906 204.933594 134.097656 L 204.945312 134.097656 C 205.703125 134.296875 206.246094 134.960938 206.289062 135.742188 C 206.332031 136.523438 205.871094 137.246094 205.140625 137.527344 C 202.050781 138.730469 200.089844 141.785156 200.285156 145.09375 C 200.332031 145.875 199.867188 146.597656 199.140625 146.882812 C 198.410156 147.167969 197.582031 146.949219 197.085938 146.34375 L 197.078125 146.335938 C 194.976562 143.769531 191.460938 142.847656 188.371094 144.050781 L 188.367188 144.050781 C 187.636719 144.335938 186.808594 144.117188 186.3125 143.511719 C 185.816406 142.902344 185.765625 142.046875 186.1875 141.386719 C 187.976562 138.601562 187.769531 134.976562 185.667969 132.414062 L 185.660156 132.40625 C 185.164062 131.800781 185.117188 130.945312 185.539062 130.289062 C 185.960938 129.628906 186.757812 129.316406 187.515625 129.515625 Z M 187.515625 129.515625 " clip-rule="nonzero"/></clipPath><clipPath id="d637f0422e"><path d="M 68 165 L 90 165 L 90 187 L 68 187 Z M 68 165 " clip-rule="nonzero"/></clipPath><clipPath id="123bd1a2e0"><path d="M 62.394531 179.195312 L 74.09375 160.964844 L 91.597656 172.199219 L 79.894531 190.429688 Z M 62.394531 179.195312 " clip-rule="nonzero"/></clipPath><clipPath id="980d09d662"><path d="M 70.273438 169.304688 L 70.285156 169.308594 C 73.488281 170.148438 76.871094 168.832031 78.660156 166.042969 C 79.082031 165.382812 79.882812 165.074219 80.636719 165.269531 C 81.394531 165.46875 81.941406 166.132812 81.984375 166.914062 L 81.988281 166.917969 C 82.179688 170.230469 84.484375 173.039062 87.691406 173.882812 L 87.703125 173.886719 C 88.460938 174.085938 89.003906 174.75 89.046875 175.53125 C 89.089844 176.3125 88.628906 177.03125 87.898438 177.316406 C 84.808594 178.515625 82.847656 181.574219 83.042969 184.878906 C 83.089844 185.660156 82.625 186.382812 81.898438 186.667969 C 81.167969 186.953125 80.339844 186.738281 79.84375 186.132812 L 79.835938 186.121094 C 77.734375 183.554688 74.21875 182.632812 71.128906 183.835938 L 71.125 183.835938 C 70.394531 184.121094 69.566406 183.902344 69.070312 183.296875 C 68.574219 182.691406 68.523438 181.835938 68.945312 181.175781 C 70.738281 178.386719 70.527344 174.765625 68.425781 172.203125 L 68.417969 172.195312 C 67.921875 171.589844 67.875 170.734375 68.296875 170.074219 C 68.71875 169.417969 69.515625 169.105469 70.273438 169.304688 Z M 70.273438 169.304688 " clip-rule="nonzero"/></clipPath><clipPath id="faa36c9ae9"><path d="M 218 236 L 240 236 L 240 259 L 218 259 Z M 218 236 " clip-rule="nonzero"/></clipPath><clipPath id="77165b62c2"><path d="M 212.429688 250.832031 L 224.128906 232.601562 L 241.632812 243.832031 L 229.929688 262.0625 Z M 212.429688 250.832031 " clip-rule="nonzero"/></clipPath><clipPath id="e5e3b15e94"><path d="M 220.308594 240.941406 L 220.320312 240.941406 C 223.523438 241.785156 226.902344 240.46875 228.691406 237.679688 C 229.117188 237.019531 229.914062 236.707031 230.671875 236.90625 C 231.429688 237.105469 231.976562 237.769531 232.019531 238.550781 L 232.019531 238.554688 C 232.214844 241.863281 234.515625 244.675781 237.726562 245.519531 L 237.738281 245.523438 C 238.496094 245.722656 239.035156 246.382812 239.082031 247.164062 C 239.125 247.945312 238.664062 248.667969 237.933594 248.949219 C 234.84375 250.152344 232.882812 253.207031 233.078125 256.515625 C 233.125 257.296875 232.660156 258.019531 231.933594 258.304688 C 231.203125 258.589844 230.375 258.371094 229.878906 257.765625 L 229.871094 257.757812 C 227.769531 255.191406 224.253906 254.269531 221.164062 255.472656 L 221.160156 255.472656 C 220.429688 255.757812 219.597656 255.539062 219.105469 254.933594 C 218.609375 254.328125 218.558594 253.46875 218.980469 252.8125 C 220.769531 250.023438 220.558594 246.398438 218.460938 243.839844 L 218.453125 243.828125 C 217.957031 243.226562 217.90625 242.367188 218.332031 241.710938 C 218.753906 241.050781 219.550781 240.742188 220.308594 240.941406 Z M 220.308594 240.941406 " clip-rule="nonzero"/></clipPath><clipPath id="25d1e38ccd"><path d="M 234 71 L 257 71 L 257 92 L 234 92 Z M 234 71 " clip-rule="nonzero"/></clipPath><clipPath id="c54f9694f8"><path d="M 230.320312 77.46875 L 248.195312 65.226562 L 259.945312 82.386719 L 242.070312 94.625 Z M 230.320312 77.46875 " clip-rule="nonzero"/></clipPath><clipPath id="4c7d4a8668"><path d="M 241.429688 71.421875 L 241.4375 71.429688 C 244.058594 73.453125 247.6875 73.554688 250.421875 71.683594 C 251.066406 71.238281 251.925781 71.261719 252.546875 71.742188 C 253.167969 72.21875 253.410156 73.042969 253.148438 73.78125 L 253.144531 73.785156 C 252.035156 76.910156 253.0625 80.394531 255.691406 82.417969 L 255.699219 82.425781 C 256.320312 82.90625 256.5625 83.726562 256.296875 84.464844 C 256.035156 85.199219 255.328125 85.683594 254.546875 85.660156 C 251.234375 85.566406 248.238281 87.617188 247.128906 90.742188 C 246.867188 91.476562 246.160156 91.960938 245.378906 91.941406 C 244.597656 91.921875 243.917969 91.398438 243.695312 90.648438 L 243.691406 90.632812 C 242.753906 87.453125 239.875 85.238281 236.558594 85.140625 L 236.554688 85.140625 C 235.773438 85.117188 235.09375 84.59375 234.871094 83.84375 C 234.652344 83.089844 234.941406 82.285156 235.585938 81.839844 C 238.320312 79.96875 239.535156 76.550781 238.597656 73.371094 L 238.59375 73.363281 C 238.375 72.613281 238.660156 71.804688 239.304688 71.363281 C 239.953125 70.921875 240.808594 70.945312 241.429688 71.421875 Z M 241.429688 71.421875 " clip-rule="nonzero"/></clipPath><clipPath id="50957565f7"><path d="M 278.929688 126.121094 L 294.355469 126.121094 L 294.355469 141.546875 L 278.929688 141.546875 Z M 278.929688 126.121094 " clip-rule="nonzero"/></clipPath><clipPath id="4a97a1b073"><path d="M 286.644531 126.121094 C 282.382812 126.121094 278.929688 129.574219 278.929688 133.832031 C 278.929688 138.09375 282.382812 141.546875 286.644531 141.546875 C 290.902344 141.546875 294.355469 138.09375 294.355469 133.832031 C 294.355469 129.574219 290.902344 126.121094 286.644531 126.121094 Z M 286.644531 126.121094 " clip-rule="nonzero"/></clipPath><clipPath id="39de0dda9c"><path d="M 83.308594 104.734375 L 98.734375 104.734375 L 98.734375 120.160156 L 83.308594 120.160156 Z M 83.308594 104.734375 " clip-rule="nonzero"/></clipPath><clipPath id="560db1d8a1"><path d="M 91.023438 104.734375 C 86.761719 104.734375 83.308594 108.1875 83.308594 112.449219 C 83.308594 116.707031 86.761719 120.160156 91.023438 120.160156 C 95.28125 120.160156 98.734375 116.707031 98.734375 112.449219 C 98.734375 108.1875 95.28125 104.734375 91.023438 104.734375 Z M 91.023438 104.734375 " clip-rule="nonzero"/></clipPath><clipPath id="4306dc7a98"><path d="M 87.8125 194.203125 L 103.238281 194.203125 L 103.238281 209.628906 L 87.8125 209.628906 Z M 87.8125 194.203125 " clip-rule="nonzero"/></clipPath><clipPath id="4491d7c75a"><path d="M 95.527344 194.203125 C 91.265625 194.203125 87.8125 197.65625 87.8125 201.914062 C 87.8125 206.175781 91.265625 209.628906 95.527344 209.628906 C 99.785156 209.628906 103.238281 206.175781 103.238281 201.914062 C 103.238281 197.65625 99.785156 194.203125 95.527344 194.203125 Z M 95.527344 194.203125 " clip-rule="nonzero"/></clipPath><clipPath id="24f679b9c5"><path d="M 191.644531 216.371094 L 207.066406 216.371094 L 207.066406 231.796875 L 191.644531 231.796875 Z M 191.644531 216.371094 " clip-rule="nonzero"/></clipPath><clipPath id="6873343bee"><path d="M 199.355469 216.371094 C 195.097656 216.371094 191.644531 219.824219 191.644531 224.082031 C 191.644531 228.34375 195.097656 231.796875 199.355469 231.796875 C 203.613281 231.796875 207.066406 228.34375 207.066406 224.082031 C 207.066406 219.824219 203.613281 216.371094 199.355469 216.371094 Z M 199.355469 216.371094 " clip-rule="nonzero"/></clipPath><clipPath id="c6d8913ddd"><path d="M 183.929688 91.410156 L 199.355469 91.410156 L 199.355469 106.835938 L 183.929688 106.835938 Z M 183.929688 91.410156 " clip-rule="nonzero"/></clipPath><clipPath id="8567f401bc"><path d="M 191.644531 91.410156 C 187.382812 91.410156 183.929688 94.863281 183.929688 99.121094 C 183.929688 103.382812 187.382812 106.835938 191.644531 106.835938 C 195.902344 106.835938 199.355469 103.382812 199.355469 99.121094 C 199.355469 94.863281 195.902344 91.410156 191.644531 91.410156 Z M 191.644531 91.410156 " clip-rule="nonzero"/></clipPath><clipPath id="94ed049c98"><path d="M 225.019531 154.671875 L 240.441406 154.671875 L 240.441406 170.097656 L 225.019531 170.097656 Z M 225.019531 154.671875 " clip-rule="nonzero"/></clipPath><clipPath id="ffff1576ac"><path d="M 232.730469 154.671875 C 228.472656 154.671875 225.019531 158.125 225.019531 162.386719 C 225.019531 166.644531 228.472656 170.097656 232.730469 170.097656 C 236.988281 170.097656 240.441406 166.644531 240.441406 162.386719 C 240.441406 158.125 236.988281 154.671875 232.730469 154.671875 Z M 232.730469 154.671875 " clip-rule="nonzero"/></clipPath><clipPath id="81a5c0141b"><path d="M 246.117188 251.320312 L 261.542969 251.320312 L 261.542969 266.746094 L 246.117188 266.746094 Z M 246.117188 251.320312 " clip-rule="nonzero"/></clipPath><clipPath id="b4a1b5ac26"><path d="M 253.828125 251.320312 C 249.570312 251.320312 246.117188 254.773438 246.117188 259.035156 C 246.117188 263.292969 249.570312 266.746094 253.828125 266.746094 C 258.089844 266.746094 261.542969 263.292969 261.542969 259.035156 C 261.542969 254.773438 258.089844 251.320312 253.828125 251.320312 Z M 253.828125 251.320312 " clip-rule="nonzero"/></clipPath><clipPath id="0b83fb7ca0"><path d="M 121.769531 246.484375 L 137.195312 246.484375 L 137.195312 261.910156 L 121.769531 261.910156 Z M 121.769531 246.484375 " clip-rule="nonzero"/></clipPath><clipPath id="c308e14c18"><path d="M 129.480469 246.484375 C 125.222656 246.484375 121.769531 249.9375 121.769531 254.199219 C 121.769531 258.457031 125.222656 261.910156 129.480469 261.910156 C 133.742188 261.910156 137.195312 258.457031 137.195312 254.199219 C 137.195312 249.9375 133.742188 246.484375 129.480469 246.484375 Z M 129.480469 246.484375 " clip-rule="nonzero"/></clipPath><clipPath id="6c595896cd"><path d="M 287.730469 198.285156 L 303.152344 198.285156 L 303.152344 213.710938 L 287.730469 213.710938 Z M 287.730469 198.285156 " clip-rule="nonzero"/></clipPath><clipPath id="07a674ba08"><path d="M 295.441406 198.285156 C 291.183594 198.285156 287.730469 201.738281 287.730469 206 C 287.730469 210.257812 291.183594 213.710938 295.441406 213.710938 C 299.699219 213.710938 303.152344 210.257812 303.152344 206 C 303.152344 201.738281 299.699219 198.285156 295.441406 198.285156 Z M 295.441406 198.285156 " clip-rule="nonzero"/></clipPath><clipPath id="2459688bc6"><path d="M 116.503906 135.59375 L 131.929688 135.59375 L 131.929688 151.019531 L 116.503906 151.019531 Z M 116.503906 135.59375 " clip-rule="nonzero"/></clipPath><clipPath id="713bce5d45"><path d="M 124.214844 135.59375 C 119.957031 135.59375 116.503906 139.046875 116.503906 143.304688 C 116.503906 147.566406 119.957031 151.019531 124.214844 151.019531 C 128.476562 151.019531 131.929688 147.566406 131.929688 143.304688 C 131.929688 139.046875 128.476562 135.59375 124.214844 135.59375 Z M 124.214844 135.59375 " clip-rule="nonzero"/></clipPath><clipPath id="ef4391bdf2"><path d="M 0 121.679688 L 375 121.679688 L 375 208.136719 L 0 208.136719 Z M 0 121.679688 " clip-rule="nonzero"/></clipPath><clipPath id="5941d74a19"><path d="M 375 121.679688 L 0 121.679688 L 25.933594 164.90625 L 0 208.136719 L 375 208.136719 L 349.066406 164.90625 Z M 375 121.679688 " clip-rule="nonzero"/></clipPath></defs><g clip-path="url(#1835e1b603)"><g clip-path="url(#5b35fe30f2)"><path fill="#ffc65c" d="M 39.535156 18.8125 L 335.464844 18.8125 L 335.464844 314.742188 L 39.535156 314.742188 Z M 39.535156 18.8125 " fill-opacity="1" fill-rule="nonzero"/></g></g><g clip-path="url(#86f5d00c9c)"><g clip-path="url(#0489fcbff3)"><path fill="#fd7ab4" d="M 57.035156 36.308594 L 317.964844 36.308594 L 317.964844 297.242188 L 57.035156 297.242188 Z M 57.035156 36.308594 " fill-opacity="1" fill-rule="nonzero"/></g></g><path stroke-linecap="round" transform="matrix(-0.448927, -0.600803, 0.600803, -0.448927, 100.530012, 166.924619)" fill="none" stroke-linejoin="miter" d="M 4.500617 4.502771 L 34.385037 4.499361 " stroke="#ffc65c" stroke-width="9" stroke-opacity="1" stroke-miterlimit="4"/><path stroke-linecap="round" transform="matrix(0.404409, -0.631628, 0.631628, 0.404409, 176.793874, 272.367551)" fill="none" stroke-linejoin="miter" d="M 4.502191 4.500171 L 34.385983 4.501241 " stroke="#ffc65c" stroke-width="9" stroke-opacity="1" stroke-miterlimit="4"/><path stroke-linecap="round" transform="matrix(-0.226286, -0.715049, 0.715049, -0.226286, 284.507067, 184.468788)" fill="none" stroke-linejoin="miter" d="M 4.497763 4.500034 L 34.384795 4.501836 " stroke="#ffc65c" stroke-width="9" stroke-opacity="1" stroke-miterlimit="4"/><path stroke-linecap="round" transform="matrix(-0.701525, 0.26526, -0.26526, -0.701525, 218.622955, 67.936484)" fill="none" stroke-linejoin="miter" d="M 4.498438 4.500312 L 34.382444 4.502076 " stroke="#ffc65c" stroke-width="9" stroke-opacity="1" stroke-miterlimit="4"/><path stroke-linecap="round" transform="matrix(-0.701525, 0.26526, -0.26526, -0.701525, 202.326452, 174.496702)" fill="none" stroke-linejoin="miter" d="M 4.499978 4.497642 L 34.383984 4.499406 " stroke="#feefc4" stroke-width="9" stroke-opacity="1" stroke-miterlimit="4"/><path stroke-linecap="round" transform="matrix(-0.0429469, 0.748769, -0.748769, -0.0429469, 126.804371, 75.531381)" fill="none" stroke-linejoin="miter" d="M 4.499225 4.499324 L 34.381731 4.501723 " stroke="#feefc4" stroke-width="9" stroke-opacity="1" stroke-miterlimit="4"/><path stroke-linecap="round" transform="matrix(0.463327, 0.58977, -0.58977, 0.463327, 260.239324, 222.001157)" fill="none" stroke-linejoin="miter" d="M 4.499373 4.496893 L 34.381812 4.499588 " stroke="#feefc4" stroke-width="9" stroke-opacity="1" stroke-miterlimit="4"/><path stroke-linecap="round" transform="matrix(-0.17486, 0.729331, -0.729331, -0.17486, 164.344038, 210.694191)" fill="none" stroke-linejoin="miter" d="M 4.498193 4.502819 L 34.383305 4.498628 " stroke="#ffc65c" stroke-width="9" stroke-opacity="1" stroke-miterlimit="4"/><path stroke-linecap="round" transform="matrix(-0.17486, 0.729331, -0.729331, -0.17486, 274.765006, 91.060139)" fill="none" stroke-linejoin="miter" d="M 4.499519 4.501258 L 34.38463 4.497068 " stroke="#feefc4" stroke-width="9" stroke-opacity="1" stroke-miterlimit="4"/><path stroke-linecap="round" transform="matrix(-0.405213, 0.631112, -0.631112, -0.405213, 169.438851, 121.9864)" fill="none" stroke-linejoin="miter" d="M 4.502481 4.501499 L 34.382789 4.497679 " stroke="#ffc65c" stroke-width="9" stroke-opacity="1" stroke-miterlimit="4"/><path stroke-linecap="round" transform="matrix(0.46698, 0.586881, -0.586881, 0.46698, 223.386669, 113.76419)" fill="none" stroke-linejoin="miter" d="M 4.501752 4.500468 L 34.380664 4.5 " stroke="#ffc65c" stroke-width="9" stroke-opacity="1" stroke-miterlimit="4"/><path stroke-linecap="round" transform="matrix(-0.382428, 0.645174, -0.645174, -0.382428, 238.162678, 187.334988)" fill="none" stroke-linejoin="miter" d="M 4.497627 4.500493 L 34.383467 4.501292 " stroke="#ffc65c" stroke-width="9" stroke-opacity="1" stroke-miterlimit="4"/><g clip-path="url(#233aa0e988)"><g clip-path="url(#0b6b1d8688)"><g clip-path="url(#08ded04950)"><path fill="#b3d7de" d="M 120.441406 183.210938 L 144.484375 166.75 L 160.148438 189.628906 L 136.109375 206.089844 Z M 120.441406 183.210938 " fill-opacity="1" fill-rule="nonzero"/></g></g></g><g clip-path="url(#1a7f24a5fe)"><g clip-path="url(#908edcd458)"><g clip-path="url(#29a64907d0)"><path fill="#421a7b" d="M 257.847656 175.308594 L 283.929688 188.296875 L 271.566406 213.117188 L 245.484375 200.128906 Z M 257.847656 175.308594 " fill-opacity="1" fill-rule="nonzero"/></g></g></g><g clip-path="url(#b68f8ddc35)"><g clip-path="url(#1cd74a4a35)"><g clip-path="url(#f0ee434f0f)"><path fill="#421a7b" d="M 150.824219 243.015625 L 176.90625 256.007812 L 164.542969 280.824219 L 138.464844 267.835938 Z M 150.824219 243.015625 " fill-opacity="1" fill-rule="nonzero"/></g></g></g><g clip-path="url(#9e67467c61)"><g clip-path="url(#1023c98ad4)"><g clip-path="url(#694344118a)"><path fill="#421a7b" d="M 140.585938 75.289062 L 156.324219 50.769531 L 179.660156 65.746094 L 163.921875 90.265625 Z M 140.585938 75.289062 " fill-opacity="1" fill-rule="nonzero"/></g></g></g><g clip-path="url(#29b88c146a)"><g clip-path="url(#e9abeb55cb)"><g clip-path="url(#ff7ea0c3e7)"><path fill="#4fa0a9" d="M 174.273438 140.34375 L 190.011719 115.824219 L 213.347656 130.800781 L 197.609375 155.320312 Z M 174.273438 140.34375 " fill-opacity="1" fill-rule="nonzero"/></g></g></g><g clip-path="url(#d637f0422e)"><g clip-path="url(#123bd1a2e0)"><g clip-path="url(#980d09d662)"><path fill="#4fa0a9" d="M 57.03125 180.128906 L 72.769531 155.609375 L 96.105469 170.585938 L 80.367188 195.105469 Z M 57.03125 180.128906 " fill-opacity="1" fill-rule="nonzero"/></g></g></g><g clip-path="url(#faa36c9ae9)"><g clip-path="url(#77165b62c2)"><g clip-path="url(#e5e3b15e94)"><path fill="#b3d7de" d="M 207.066406 251.765625 L 222.804688 227.246094 L 246.140625 242.222656 L 230.402344 266.742188 Z M 207.066406 251.765625 " fill-opacity="1" fill-rule="nonzero"/></g></g></g><g clip-path="url(#25d1e38ccd)"><g clip-path="url(#c54f9694f8)"><g clip-path="url(#4c7d4a8668)"><path fill="#b3d7de" d="M 225.019531 76.242188 L 249.058594 59.78125 L 264.722656 82.65625 L 240.683594 99.121094 Z M 225.019531 76.242188 " fill-opacity="1" fill-rule="nonzero"/></g></g></g><g clip-path="url(#50957565f7)"><g clip-path="url(#4a97a1b073)"><path fill="#ffffff" d="M 278.929688 126.121094 L 294.355469 126.121094 L 294.355469 141.546875 L 278.929688 141.546875 Z M 278.929688 126.121094 " fill-opacity="1" fill-rule="nonzero"/></g></g><g clip-path="url(#39de0dda9c)"><g clip-path="url(#560db1d8a1)"><path fill="#ffb1bd" d="M 83.308594 104.734375 L 98.734375 104.734375 L 98.734375 120.160156 L 83.308594 120.160156 Z M 83.308594 104.734375 " fill-opacity="1" fill-rule="nonzero"/></g></g><g clip-path="url(#4306dc7a98)"><g clip-path="url(#4491d7c75a)"><path fill="#d8a3d7" d="M 87.8125 194.203125 L 103.238281 194.203125 L 103.238281 209.628906 L 87.8125 209.628906 Z M 87.8125 194.203125 " fill-opacity="1" fill-rule="nonzero"/></g></g><g clip-path="url(#24f679b9c5)"><g clip-path="url(#6873343bee)"><path fill="#ffffff" d="M 191.644531 216.371094 L 207.066406 216.371094 L 207.066406 231.796875 L 191.644531 231.796875 Z M 191.644531 216.371094 " fill-opacity="1" fill-rule="nonzero"/></g></g><g clip-path="url(#c6d8913ddd)"><g clip-path="url(#8567f401bc)"><path fill="#d8a3d7" d="M 183.929688 91.410156 L 199.355469 91.410156 L 199.355469 106.835938 L 183.929688 106.835938 Z M 183.929688 91.410156 " fill-opacity="1" fill-rule="nonzero"/></g></g><g clip-path="url(#94ed049c98)"><g clip-path="url(#ffff1576ac)"><path fill="#d8a3d7" d="M 225.019531 154.671875 L 240.441406 154.671875 L 240.441406 170.097656 L 225.019531 170.097656 Z M 225.019531 154.671875 " fill-opacity="1" fill-rule="nonzero"/></g></g><g clip-path="url(#81a5c0141b)"><g clip-path="url(#b4a1b5ac26)"><path fill="#ffb1bd" d="M 246.117188 251.320312 L 261.542969 251.320312 L 261.542969 266.746094 L 246.117188 266.746094 Z M 246.117188 251.320312 " fill-opacity="1" fill-rule="nonzero"/></g></g><g clip-path="url(#0b83fb7ca0)"><g clip-path="url(#c308e14c18)"><path fill="#ffffff" d="M 121.769531 246.484375 L 137.195312 246.484375 L 137.195312 261.910156 L 121.769531 261.910156 Z M 121.769531 246.484375 " fill-opacity="1" fill-rule="nonzero"/></g></g><g clip-path="url(#6c595896cd)"><g clip-path="url(#07a674ba08)"><path fill="#ffffff" d="M 287.730469 198.285156 L 303.152344 198.285156 L 303.152344 213.710938 L 287.730469 213.710938 Z M 287.730469 198.285156 " fill-opacity="1" fill-rule="nonzero"/></g></g><g clip-path="url(#2459688bc6)"><g clip-path="url(#713bce5d45)"><path fill="#ffffff" d="M 116.503906 135.59375 L 131.929688 135.59375 L 131.929688 151.019531 L 116.503906 151.019531 Z M 116.503906 135.59375 " fill-opacity="1" fill-rule="nonzero"/></g></g><path stroke-linecap="round" transform="matrix(0.241244, 0.710142, -0.710142, 0.241244, 108.408835, 216.649601)" fill="none" stroke-linejoin="miter" d="M 4.497724 4.501933 L 34.383397 4.500257 " stroke="#feefc4" stroke-width="9" stroke-opacity="1" stroke-miterlimit="4"/><g clip-path="url(#ef4391bdf2)"><g clip-path="url(#5941d74a19)"><path fill="#421a7b" d="M 0 121.679688 L 374.875 121.679688 L 374.875 208.136719 L 0 208.136719 Z M 0 121.679688 " fill-opacity="1" fill-rule="nonzero"/></g></g><path stroke-linecap="butt" transform="matrix(1.904158, 0, 0, 1.904158, 43.895174, 145.344394)" fill="none" stroke-linejoin="miter" d="M 5.124139 16.999878 L 6.564245 16.999878 L 6.564245 3.956874 C 8.541825 3.975337 9.735758 4.090217 11.001492 5.263636 L 11.001492 3.80712 L 0.682789 3.80712 L 0.682789 5.263636 C 1.917751 4.090217 3.128096 3.975337 5.124139 3.956874 Z M 17.609154 9.7255 C 19.229785 9.520357 20.610399 8.584904 20.610399 6.755027 C 20.610399 4.627692 18.351772 3.80712 15.609008 3.80712 L 12.324665 3.80712 L 12.324665 16.999878 L 13.799645 16.999878 L 13.799645 6.531421 C 13.967862 7.315068 14.191468 7.912035 14.529955 8.453613 C 15.089995 9.333677 15.892105 9.797301 16.802941 9.797301 C 21.020685 9.797301 16.802941 16.999878 23.595232 16.999878 L 23.595232 16.850123 C 22.34591 16.850123 21.654577 15.432584 20.948885 13.811953 C 20.200112 12.057978 19.549808 10.170661 17.609154 9.7255 Z M 19.135419 6.755027 C 19.135419 8.714145 18.128166 9.592157 16.934233 9.666009 L 16.802941 9.666009 C 15.945442 9.666009 15.180258 9.122379 14.657143 8.36335 C 14.138131 7.538674 13.799645 6.476032 13.799645 5.113882 L 13.799645 3.956874 L 15.609008 3.956874 C 17.422473 3.956874 19.135419 4.627692 19.135419 6.755027 Z M 26.356459 8.211544 C 26.898037 10.41273 29.136149 10.304004 30.219305 11.532812 L 30.219305 10.057832 C 27.659118 10.057832 26.356459 9.53882 26.356459 6.976582 L 26.356459 3.956874 L 27.886827 3.956874 C 30.159814 3.956874 31.130141 4.049188 32.457418 5.319025 L 32.457418 3.825582 L 24.916354 3.825582 L 24.916354 16.999878 L 32.34664 16.999878 L 32.775389 14.238651 C 32.100468 16.119814 31.130141 16.850123 29.50951 16.850123 L 26.356459 16.850123 Z M 43.165892 16.999878 L 44.733186 16.999878 L 39.153291 3.825582 L 39.026102 3.825582 C 37.60446 6.233963 35.92844 9.629083 34.93965 12.297996 C 34.488335 13.491929 34.227803 14.536108 34.13754 15.360784 C 34.041123 16.197768 34.246266 16.757809 34.75297 16.981415 C 34.880159 17.090141 34.93965 17.090141 35.048376 17.114758 C 35.891514 17.149632 36.205384 16.4583 36.560281 15.524898 C 37.157248 14.162748 37.885506 12.244659 41.05702 11.943098 Z M 41.001631 11.811807 C 37.772677 12.129779 37.025956 14.088896 36.410527 15.487973 C 36.115121 16.347522 35.81356 16.999878 35.066839 16.944489 C 34.974524 16.887049 34.921187 16.887049 34.806307 16.850123 C 34.361146 16.698317 34.227803 16.119814 34.264729 15.360784 C 34.361146 14.554571 34.619627 13.528855 35.066839 12.334922 C 35.850486 10.170661 37.120322 7.63304 38.260918 5.427751 Z M 50.495658 16.999878 L 51.935763 16.999878 L 51.935763 3.956874 C 53.913343 3.975337 55.107277 4.090217 56.37301 5.263636 L 56.37301 3.80712 L 46.054308 3.80712 L 46.054308 5.263636 C 47.28927 4.090217 48.501666 3.975337 50.495658 3.956874 Z M 72.158778 4.871813 C 72.29007 4.535378 72.997814 3.844045 73.484003 3.80712 L 71.375131 3.80712 C 71.730029 3.844045 72.326996 4.198943 71.935172 4.964127 L 68.855973 10.935845 L 67.475359 8.640293 L 64.601303 3.80712 L 62.919129 3.80712 L 67.475359 11.454857 L 67.475359 16.999878 L 68.946236 16.999878 L 68.946236 11.063034 Z M 79.732665 4.012263 C 76.206253 4.964127 74.097381 8.584904 75.032834 12.129779 C 76.003162 15.711579 79.601373 17.820451 83.109322 16.83166 C 86.654196 15.898259 88.763068 12.222093 87.774278 8.730556 C 86.859339 5.187733 83.22215 3.023473 79.732665 4.012263 Z M 79.751128 4.162017 C 82.959567 3.265541 85.573091 6.233963 86.338275 9.105968 C 87.062431 11.943098 86.262372 15.879796 83.072396 16.698317 C 79.919345 17.541456 77.287358 14.554571 76.540637 11.737955 C 75.773401 8.882362 76.575511 4.98259 79.751128 4.162017 Z M 90.832963 3.80712 L 89.355932 3.80712 L 89.355932 12.222093 C 89.355932 15.916722 93.05056 17.914816 96.394394 16.722934 C 98.353512 15.992625 99.379228 14.294039 99.379228 12.222093 L 99.379228 3.80712 L 97.92066 3.80712 C 99.155622 5.411339 99.208959 9.42394 99.208959 12.222093 C 99.208959 14.365839 98.148369 15.916722 96.353366 16.571129 C 93.352121 17.693262 90.832963 15.319755 90.832963 12.222093 Z M 105.982787 9.7255 C 107.605469 9.520357 108.986083 8.584904 108.986083 6.755027 C 108.986083 4.627692 106.725405 3.80712 103.982641 3.80712 L 100.698298 3.80712 L 100.698298 16.999878 L 102.175329 16.999878 L 102.175329 6.531421 C 102.343547 7.315068 102.567153 7.912035 102.903588 8.453613 C 103.463629 9.333677 104.265738 9.797301 105.176574 9.797301 C 109.396369 9.797301 105.176574 16.999878 111.968865 16.999878 L 111.968865 16.850123 C 110.721594 16.850123 110.02821 15.432584 109.322518 13.811953 C 108.575797 12.057978 107.923441 10.170661 105.982787 9.7255 Z M 107.509052 6.755027 C 107.509052 8.714145 106.503851 9.592157 105.309917 9.666009 L 105.176574 9.666009 C 104.321127 9.666009 103.555943 9.122379 103.030776 8.36335 C 102.511764 7.538674 102.175329 6.476032 102.175329 5.113882 L 102.175329 3.956874 L 103.982641 3.956874 C 105.796107 3.956874 107.509052 4.627692 107.509052 6.755027 Z M 114.243903 7.001199 C 114.243903 9.122379 116.20302 10.189124 118.203166 11.087651 C 122.548099 13.081643 122.886585 15.003835 121.651623 16.029551 C 119.300682 18.007131 115.123967 16.384448 113.292039 11.756418 L 113.292039 14.349428 C 115.400911 17.055266 119.674043 17.801988 121.801378 16.179305 C 122.476299 15.637727 122.886585 14.85408 122.886585 13.846827 C 122.886585 11.641538 120.945931 10.580948 118.908859 9.700883 C 114.358783 7.579703 114.206977 5.524168 115.665545 4.572304 C 117.378491 3.37837 120.777713 3.657365 122.662979 7.483285 L 122.662979 5.524168 C 121.054657 2.931158 114.243903 2.836792 114.243903 7.001199 Z M 125.645761 8.211544 C 126.187339 10.41273 128.4234 10.304004 129.508607 11.532812 L 129.508607 10.057832 C 126.94842 10.057832 125.645761 9.53882 125.645761 6.976582 L 125.645761 3.956874 L 127.176129 3.956874 C 129.449116 3.956874 130.419443 4.049188 131.744668 5.319025 L 131.744668 3.825582 L 124.205656 3.825582 L 124.205656 16.999878 L 131.635942 16.999878 L 132.064692 14.238651 C 131.38977 16.119814 130.419443 16.850123 128.798812 16.850123 L 125.645761 16.850123 Z M 141.279723 14.238651 C 140.586339 16.119814 139.640629 16.850123 138.032307 16.850123 L 134.879256 16.850123 L 134.879256 3.825582 L 133.383762 3.825582 L 133.383762 16.999878 L 140.832511 16.999878 Z M 144.040951 8.211544 C 144.600992 10.41273 146.802178 10.304004 147.940723 11.532812 L 147.940723 10.057832 C 145.34361 10.057832 144.040951 9.53882 144.040951 6.976582 L 144.040951 3.956874 L 145.552856 3.956874 C 147.862768 3.956874 148.833096 4.049188 150.139858 5.319025 L 150.139858 3.825582 L 142.600846 3.825582 L 142.600846 16.999878 L 144.040951 16.999878 Z M 144.040951 8.211544 " stroke="#ffffff" stroke-width="0.653335" stroke-opacity="1" stroke-miterlimit="4"/><g fill="#ffffff" fill-opacity="1"><g transform="translate(43.954679, 177.715076)"><g><path d="M 9.703125 0 L 12.4375 0 L 12.4375 -24.84375 C 16.203125 -24.796875 18.46875 -24.59375 20.890625 -22.34375 L 20.890625 -25.125 L 1.25 -25.125 L 1.25 -22.34375 C 3.59375 -24.59375 5.890625 -24.796875 9.703125 -24.84375 Z M 9.703125 0 "/></g></g></g><g fill="#ffffff" fill-opacity="1"><g transform="translate(66.12196, 177.715076)"><g><path d="M 11.296875 -13.859375 C 14.390625 -14.25 17.015625 -16.03125 17.015625 -19.5 C 17.015625 -23.5625 12.71875 -25.125 7.5 -25.125 L 1.25 -25.125 L 1.25 0 L 4.046875 0 L 4.046875 -19.9375 C 4.375 -18.4375 4.796875 -17.296875 5.4375 -16.265625 C 6.5 -14.609375 8.03125 -13.71875 9.765625 -13.71875 C 17.796875 -13.71875 9.765625 0 22.703125 0 L 22.703125 -0.28125 C 20.328125 -0.28125 19.015625 -2.984375 17.65625 -6.078125 C 16.234375 -9.421875 15 -13 11.296875 -13.859375 Z M 14.21875 -19.5 C 14.21875 -15.78125 12.296875 -14.109375 10.015625 -13.96875 L 9.765625 -13.96875 C 8.140625 -13.96875 6.6875 -15 5.6875 -16.453125 C 4.6875 -18.015625 4.046875 -20.046875 4.046875 -22.640625 L 4.046875 -24.84375 L 7.5 -24.84375 C 10.9375 -24.84375 14.21875 -23.5625 14.21875 -19.5 Z M 14.21875 -19.5 "/></g></g></g><g fill="#ffffff" fill-opacity="1"><g transform="translate(90.100975, 177.715076)"><g><path d="M 3.984375 -16.734375 C 5.015625 -12.546875 9.28125 -12.75 11.328125 -10.40625 L 11.328125 -13.21875 C 6.46875 -13.21875 3.984375 -14.21875 3.984375 -19.078125 L 3.984375 -24.84375 L 6.890625 -24.84375 C 11.234375 -24.84375 13.078125 -24.65625 15.59375 -22.25 L 15.59375 -25.078125 L 1.25 -25.078125 L 1.25 0 L 15.390625 0 L 16.203125 -5.265625 C 14.921875 -1.671875 13.078125 -0.28125 9.984375 -0.28125 L 3.984375 -0.28125 Z M 3.984375 -16.734375 "/></g></g></g><g fill="#ffffff" fill-opacity="1"><g transform="translate(107.579019, 177.715076)"><g><path d="M 18.515625 0 L 21.5 0 L 10.875 -25.078125 L 10.625 -25.078125 C 7.921875 -20.5 4.71875 -14.03125 2.84375 -8.953125 C 1.984375 -6.6875 1.5 -4.6875 1.3125 -3.125 C 1.140625 -1.53125 1.53125 -0.46875 2.484375 -0.03125 C 2.734375 0.171875 2.84375 0.171875 3.0625 0.21875 C 4.65625 0.28125 5.265625 -1.03125 5.9375 -2.8125 C 7.078125 -5.40625 8.453125 -9.0625 14.5 -9.625 Z M 14.390625 -9.875 C 8.25 -9.28125 6.828125 -5.546875 5.65625 -2.875 C 5.078125 -1.25 4.515625 0 3.09375 -0.109375 C 2.90625 -0.21875 2.8125 -0.21875 2.59375 -0.28125 C 1.734375 -0.5625 1.5 -1.671875 1.5625 -3.125 C 1.734375 -4.65625 2.234375 -6.609375 3.09375 -8.890625 C 4.578125 -13 7 -17.84375 9.171875 -22.03125 Z M 14.390625 -9.875 "/></g></g></g><g fill="#ffffff" fill-opacity="1"><g transform="translate(130.35021, 177.715076)"><g><path d="M 9.703125 0 L 12.4375 0 L 12.4375 -24.84375 C 16.203125 -24.796875 18.46875 -24.59375 20.890625 -22.34375 L 20.890625 -25.125 L 1.25 -25.125 L 1.25 -22.34375 C 3.59375 -24.59375 5.890625 -24.796875 9.703125 -24.84375 Z M 9.703125 0 "/></g></g></g><g fill="#ffffff" fill-opacity="1"><g transform="translate(152.517489, 177.715076)"><g/></g></g><g fill="#ffffff" fill-opacity="1"><g transform="translate(162.46435, 177.715076)"><g><path d="M 18.828125 -23.09375 C 19.078125 -23.734375 20.4375 -25.046875 21.359375 -25.125 L 17.34375 -25.125 C 18.015625 -25.046875 19.15625 -24.375 18.40625 -22.921875 L 12.546875 -11.546875 L 9.90625 -15.921875 L 4.4375 -25.125 L 1.25 -25.125 L 9.90625 -10.546875 L 9.90625 0 L 12.71875 0 L 12.71875 -11.296875 Z M 18.828125 -23.09375 "/></g></g></g><g fill="#ffffff" fill-opacity="1"><g transform="translate(185.093432, 177.715076)"><g><path d="M 10.625 -24.734375 C 3.90625 -22.921875 -0.109375 -16.03125 1.671875 -9.28125 C 3.515625 -2.453125 10.375 1.5625 17.0625 -0.3125 C 23.8125 -2.09375 27.828125 -9.09375 25.9375 -15.734375 C 24.203125 -22.484375 17.265625 -26.609375 10.625 -24.734375 Z M 10.65625 -24.453125 C 16.765625 -26.15625 21.75 -20.5 23.203125 -15.03125 C 24.59375 -9.625 23.0625 -2.125 16.984375 -0.5625 C 10.984375 1.03125 5.96875 -4.65625 4.546875 -10.015625 C 3.09375 -15.453125 4.625 -22.875 10.65625 -24.453125 Z M 10.65625 -24.453125 "/></g></g></g><g fill="#ffffff" fill-opacity="1"><g transform="translate(212.802522, 177.715076)"><g><path d="M 4.046875 -25.125 L 1.25 -25.125 L 1.25 -9.09375 C 1.25 -2.0625 8.28125 1.734375 14.640625 -0.53125 C 18.375 -1.921875 20.328125 -5.15625 20.328125 -9.09375 L 20.328125 -25.125 L 17.546875 -25.125 C 19.890625 -22.0625 20 -14.421875 20 -9.09375 C 20 -5.015625 17.984375 -2.0625 14.5625 -0.8125 C 8.84375 1.3125 4.046875 -3.203125 4.046875 -9.09375 Z M 4.046875 -25.125 "/></g></g></g><g fill="#ffffff" fill-opacity="1"><g transform="translate(234.401403, 177.715076)"><g><path d="M 11.296875 -13.859375 C 14.390625 -14.25 17.015625 -16.03125 17.015625 -19.5 C 17.015625 -23.5625 12.71875 -25.125 7.5 -25.125 L 1.25 -25.125 L 1.25 0 L 4.046875 0 L 4.046875 -19.9375 C 4.375 -18.4375 4.796875 -17.296875 5.4375 -16.265625 C 6.5 -14.609375 8.03125 -13.71875 9.765625 -13.71875 C 17.796875 -13.71875 9.765625 0 22.703125 0 L 22.703125 -0.28125 C 20.328125 -0.28125 19.015625 -2.984375 17.65625 -6.078125 C 16.234375 -9.421875 15 -13 11.296875 -13.859375 Z M 14.21875 -19.5 C 14.21875 -15.78125 12.296875 -14.109375 10.015625 -13.96875 L 9.765625 -13.96875 C 8.140625 -13.96875 6.6875 -15 5.6875 -16.453125 C 4.6875 -18.015625 4.046875 -20.046875 4.046875 -22.640625 L 4.046875 -24.84375 L 7.5 -24.84375 C 10.9375 -24.84375 14.21875 -23.5625 14.21875 -19.5 Z M 14.21875 -19.5 "/></g></g></g><g fill="#ffffff" fill-opacity="1"><g transform="translate(258.380423, 177.715076)"><g><path d="M 3.0625 -19.046875 C 3.0625 -15 6.78125 -12.96875 10.59375 -11.265625 C 18.859375 -7.46875 19.5 -3.796875 17.15625 -1.84375 C 12.6875 1.921875 4.71875 -1.171875 1.25 -9.984375 L 1.25 -5.046875 C 5.265625 0.109375 13.390625 1.53125 17.453125 -1.5625 C 18.71875 -2.59375 19.5 -4.09375 19.5 -6 C 19.5 -10.203125 15.8125 -12.21875 11.9375 -13.890625 C 3.265625 -17.9375 2.984375 -21.859375 5.75 -23.65625 C 9.03125 -25.9375 15.484375 -25.40625 19.078125 -18.125 L 19.078125 -21.859375 C 16.03125 -26.796875 3.0625 -26.96875 3.0625 -19.046875 Z M 3.0625 -19.046875 "/></g></g></g><g fill="#ffffff" fill-opacity="1"><g transform="translate(279.162245, 177.715076)"><g><path d="M 3.984375 -16.734375 C 5.015625 -12.546875 9.28125 -12.75 11.328125 -10.40625 L 11.328125 -13.21875 C 6.46875 -13.21875 3.984375 -14.21875 3.984375 -19.078125 L 3.984375 -24.84375 L 6.890625 -24.84375 C 11.234375 -24.84375 13.078125 -24.65625 15.59375 -22.25 L 15.59375 -25.078125 L 1.25 -25.078125 L 1.25 0 L 15.390625 0 L 16.203125 -5.265625 C 14.921875 -1.671875 13.078125 -0.28125 9.984375 -0.28125 L 3.984375 -0.28125 Z M 3.984375 -16.734375 "/></g></g></g><g fill="#ffffff" fill-opacity="1"><g transform="translate(296.640278, 177.715076)"><g><path d="M 16.265625 -5.265625 C 14.953125 -1.671875 13.140625 -0.28125 10.09375 -0.28125 L 4.09375 -0.28125 L 4.09375 -25.078125 L 1.25 -25.078125 L 1.25 0 L 15.421875 0 Z M 16.265625 -5.265625 "/></g></g></g><g fill="#ffffff" fill-opacity="1"><g transform="translate(314.189381, 177.715076)"><g><path d="M 3.984375 -16.734375 C 5.046875 -12.546875 9.234375 -12.75 11.40625 -10.40625 L 11.40625 -13.21875 C 6.46875 -13.21875 3.984375 -14.21875 3.984375 -19.078125 L 3.984375 -24.84375 L 6.859375 -24.84375 C 11.265625 -24.84375 13.109375 -24.65625 15.59375 -22.25 L 15.59375 -25.078125 L 1.25 -25.078125 L 1.25 0 L 3.984375 0 Z M 3.984375 -16.734375 "/></g></g></g><g fill="#421a7b" fill-opacity="1"><g transform="translate(49.189693, 276.512652)"><g><path d="M 4.921875 5.921875 L 0 0 L 0.328125 -0.265625 C 0.328125 -0.265625 1.4375 0.71875 2.984375 -0.578125 L 9.078125 -5.640625 C 10.5625 -6.875 9.84375 -8.171875 9.84375 -8.171875 L 10.171875 -8.453125 L 14.5 -3.96875 L 6.125 3 C 4.46875 4.375 5.25 5.65625 5.25 5.65625 Z M 17.125 -9.46875 C 18 -8.40625 17.84375 -6.84375 16.796875 -5.96875 C 15.734375 -5.09375 14.1875 -5.234375 13.3125 -6.296875 C 12.40625 -7.375 12.546875 -8.921875 13.609375 -9.796875 C 14.65625 -10.671875 16.21875 -10.546875 17.125 -9.46875 Z M 17.125 -9.46875 "/></g></g></g><g fill="#421a7b" fill-opacity="1"><g transform="translate(54.818539, 283.407648)"><g><path d="M 13.46875 -4.140625 C 16.859375 -3.5 19.046875 -0.34375 17.59375 1.984375 L 14.546875 0.25 C 15.390625 -1.34375 15.21875 -2.78125 12.875 -3.578125 C 12.5 -3.21875 6.25 2.71875 6.25 2.71875 C 4.796875 4.109375 5.640625 5.3125 5.640625 5.3125 L 5.328125 5.609375 L 0 0 L 0.3125 -0.296875 C 0.3125 -0.296875 1.421875 0.71875 3 -0.78125 L 8.5 -6 C 10.078125 -7.5 9.203125 -8.71875 9.203125 -8.71875 L 9.53125 -9.03125 L 14.359375 -4.984375 C 14.359375 -4.984375 14 -4.640625 13.46875 -4.140625 Z M 13.46875 -4.140625 "/></g></g></g><g fill="#421a7b" fill-opacity="1"><g transform="translate(64.895781, 294.000246)"><g><path d="M 14.203125 -5.59375 C 17.015625 -3.09375 17.3125 1.25 14.796875 4.078125 C 12.3125 6.875 7.953125 7.078125 5.140625 4.578125 C 2.296875 2.046875 2.03125 -2.28125 4.515625 -5.078125 C 7.03125 -7.90625 11.359375 -8.125 14.203125 -5.59375 Z M 13.75 -5.09375 C 12.453125 -6.25 10.25 -4.5625 8.0625 -2.09375 C 5.828125 0.421875 4.421875 2.78125 5.71875 3.9375 C 7.015625 5.09375 9.296875 3.5 11.53125 0.984375 C 13.71875 -1.484375 15.046875 -3.9375 13.75 -5.09375 Z M 13.75 -5.09375 "/></g></g></g><g fill="#421a7b" fill-opacity="1"><g transform="translate(76.004306, 303.939171)"><g><path d="M 12.265625 -6.3125 C 17.5 -6.4375 19.53125 -1.84375 17.84375 0.453125 C 15.21875 4.015625 13.359375 6.53125 13.359375 6.53125 C 12.09375 8.25 13.203125 9.203125 13.203125 9.203125 L 12.953125 9.546875 L 6.734375 4.96875 L 6.984375 4.625 C 6.984375 4.625 8.296875 5.328125 9.5 3.703125 L 13.3125 -1.46875 C 14.8125 -3.5 14.828125 -5.3125 11.8125 -5.703125 C 11.484375 -5.265625 6.640625 1.59375 6.640625 1.59375 C 5.4375 3.21875 6.46875 4.25 6.46875 4.25 L 6.21875 4.59375 L 0 0 L 0.25 -0.34375 C 0.28125 -0.328125 1.53125 0.453125 2.796875 -1.265625 L 7.203125 -7.28125 C 8.5 -9.03125 7.453125 -10.09375 7.453125 -10.09375 L 7.703125 -10.453125 L 13.046875 -7.375 C 13.046875 -7.375 12.734375 -6.953125 12.265625 -6.3125 Z M 12.265625 -6.3125 "/></g></g></g><g fill="#421a7b" fill-opacity="1"><g transform="translate(90.07528, 314.550885)"><g><path d="M 20.40625 -4.046875 L 20.390625 -3.625 C 20.125 -3.734375 19.109375 -3.765625 18.9375 -1.96875 L 18.640625 3.203125 C 19.8125 2.3125 21.265625 1.234375 22.6875 0.078125 C 24.25 -1.109375 23.375 -1.984375 23.375 -1.984375 L 23.78125 -2.25 L 27.65625 -0.0625 L 27.25 0.203125 C 26.9375 0.0625 25.3125 -0.140625 23.921875 0.890625 L 14.03125 7.96875 L 14.640625 -1.640625 L 6.875 3.921875 L 7.625 -7.984375 C 7.765625 -9.703125 7.515625 -10.703125 6.671875 -11.375 L 6.71875 -11.890625 L 13.25 -8.203125 L 13.1875 -7.6875 C 12.96875 -7.78125 11.9375 -7.8125 11.78125 -6.015625 L 11.46875 -0.84375 C 12.4375 -1.59375 13.5625 -2.453125 14.734375 -3.359375 L 14.78125 -3.953125 C 14.921875 -5.65625 14.671875 -6.65625 13.828125 -7.328125 L 13.875 -7.84375 L 16.609375 -6.296875 L 20.484375 -4.109375 Z M 20.40625 -4.046875 "/></g></g></g><g fill="#421a7b" fill-opacity="1"><g transform="translate(112.012297, 326.586002)"><g><path d="M 11.65625 -9.859375 C 15.125 -8.390625 16.796875 -4.359375 15.328125 -0.890625 C 13.859375 2.5625 9.8125 4.15625 6.34375 2.6875 C 2.828125 1.203125 1.1875 -2.8125 2.65625 -6.265625 C 4.125 -9.734375 8.140625 -11.34375 11.65625 -9.859375 Z M 11.390625 -9.234375 C 9.796875 -9.90625 8.265625 -7.625 6.96875 -4.578125 C 5.65625 -1.484375 5.078125 1.21875 6.671875 1.890625 C 8.265625 2.5625 9.921875 0.328125 11.234375 -2.765625 C 12.53125 -5.8125 12.984375 -8.5625 11.390625 -9.234375 Z M 11.390625 -9.234375 "/></g></g></g><g fill="#421a7b" fill-opacity="1"><g transform="translate(125.707554, 332.369621)"><g><path d="M 10.78125 -10.8125 C 14.359375 -9.640625 16.375 -5.765625 15.1875 -2.171875 C 14.03125 1.390625 10.125 3.3125 6.546875 2.140625 C 2.921875 0.953125 0.953125 -2.890625 2.109375 -6.453125 C 3.296875 -10.046875 7.15625 -12 10.78125 -10.8125 Z M 10.578125 -10.171875 C 8.9375 -10.703125 7.578125 -8.28125 6.546875 -5.140625 C 5.5 -1.953125 5.171875 0.796875 6.8125 1.328125 C 8.46875 1.875 9.921875 -0.515625 10.96875 -3.703125 C 12 -6.84375 12.234375 -9.625 10.578125 -10.171875 Z M 10.578125 -10.171875 "/></g></g></g><g fill="#421a7b" fill-opacity="1"><g transform="translate(139.856161, 337.02599)"><g><path d="M 11.765625 -10.109375 L 12.203125 -11.9375 C 12.6875 -14.0625 11.296875 -14.59375 11.296875 -14.59375 L 11.390625 -15.015625 L 17.640625 -14.296875 C 17.640625 -14.296875 17.1875 -12.484375 16.75 -10.578125 L 14.1875 0.546875 C 13.734375 2.515625 15.125 3.0625 15.125 3.0625 L 15.03125 3.46875 L 6.8125 1.5625 C 1.1875 0.28125 0.78125 -3.40625 1.5 -6.53125 C 2.71875 -11.8125 8.3125 -14.0625 11.765625 -10.109375 Z M 11.59375 -9.3125 C 8.671875 -11.828125 7.046875 -9.03125 6.234375 -5.5 C 5.65625 -3 5.390625 0.453125 7.671875 0.984375 C 8.1875 1.09375 9.171875 1.328125 9.625 -0.8125 Z M 11.59375 -9.3125 "/></g></g></g><g fill="#421a7b" fill-opacity="1"><g transform="translate(156.051002, 340.55468)"><g><path d="M 0.375 -0.0625 C 0.0625 -0.390625 0.03125 -0.890625 0.3125 -1.25 C 0.625 -1.609375 1.1875 -1.671875 1.578125 -1.359375 C 1.9375 -1.0625 2 -0.484375 1.6875 -0.140625 L 0.609375 1.15625 C 0.03125 0.78125 0.546875 0.390625 0.375 -0.0625 Z M 0.375 -0.0625 "/></g></g></g><g fill="#421a7b" fill-opacity="1"><g transform="translate(158.326605, 341.054039)"><g/></g></g><g fill="#421a7b" fill-opacity="1"><g transform="translate(170.932429, 343.049442)"><g><path d="M 6.359375 -12.25 C 9.578125 -14.625 12.84375 -13.6875 14.171875 -11.859375 C 18.328125 -15.140625 23.34375 -12.640625 23.28125 -9.75 C 23.1875 -5.328125 23.125 -2.203125 23.125 -2.203125 C 23.078125 -0.0625 24.578125 0.09375 24.578125 0.09375 L 24.5625 0.515625 L 16.84375 0.359375 L 16.859375 -0.0625 C 16.859375 -0.0625 18.328125 -0.25 18.375 -2.265625 L 18.5 -8.6875 C 18.5625 -11.1875 17.203125 -12.46875 14.578125 -11.15625 C 14.765625 -10.765625 14.84375 -10.34375 14.84375 -9.921875 C 14.75 -5.5 14.6875 -2.375 14.6875 -2.375 C 14.640625 -0.234375 16.109375 -0.078125 16.109375 -0.078125 L 16.09375 0.34375 L 8.375 0.171875 L 8.390625 -0.25 C 8.390625 -0.25 9.859375 -0.4375 9.90625 -2.453125 L 10.03125 -8.875 C 10.09375 -11.40625 9.03125 -12.890625 6.34375 -11.484375 C 6.328125 -10.9375 6.3125 -2.53125 6.3125 -2.53125 C 6.265625 -0.515625 7.71875 -0.265625 7.71875 -0.265625 L 7.703125 0.15625 L 0 0 L 0.015625 -0.421875 C 0.015625 -0.421875 1.515625 -0.515625 1.5625 -2.65625 L 1.6875 -10.109375 C 1.734375 -12.28125 0.265625 -12.546875 0.265625 -12.546875 L 0.265625 -12.984375 L 6.40625 -13.5625 C 6.40625 -13.5625 6.40625 -13.03125 6.359375 -12.25 Z M 6.359375 -12.25 "/></g></g></g><g fill="#421a7b" fill-opacity="1"><g transform="translate(196.853544, 343.150265)"><g><path d="M 7.671875 -0.609375 L 0 0 L -0.03125 -0.421875 C -0.03125 -0.421875 1.421875 -0.75 1.265625 -2.75 L 0.640625 -10.65625 C 0.484375 -12.59375 -1 -12.75 -1 -12.75 L -1.03125 -13.171875 L 5.125 -14.125 L 5.984375 -3.265625 C 6.15625 -1.125 7.640625 -1.03125 7.640625 -1.03125 Z M 2.140625 -19.4375 C 3.515625 -19.546875 4.6875 -18.515625 4.796875 -17.171875 C 4.90625 -15.796875 3.90625 -14.609375 2.53125 -14.5 C 1.140625 -14.390625 -0.046875 -15.40625 -0.15625 -16.78125 C -0.265625 -18.125 0.75 -19.328125 2.140625 -19.4375 Z M 2.140625 -19.4375 "/></g></g></g><g fill="#421a7b" fill-opacity="1"><g transform="translate(205.704156, 342.501554)"><g/></g></g><g fill="#421a7b" fill-opacity="1"><g transform="translate(218.09463, 340.721233)"><g><path d="M 7 -11.921875 C 4.046875 -10.6875 1.046875 -10.015625 -2.078125 -10.046875 L -1.578125 -7.609375 C 1.296875 -8.796875 4.328125 -9.34375 7.5 -9.484375 Z M 7 -11.921875 "/></g></g></g><g fill="#421a7b" fill-opacity="1"><g transform="translate(228.271369, 338.641043)"><g/></g></g><g fill="#421a7b" fill-opacity="1"><g transform="translate(240.400696, 335.320868)"><g><path d="M 6.921875 -9.640625 C 5.109375 -8.984375 2.25 -8.0625 2.25 -8.0625 C 3.671875 -4.109375 5.484375 -2.859375 7.296875 -3.546875 C 9.78125 -4.4375 9.828125 -6.328125 9.90625 -7.15625 L 11.140625 -6.09375 C 10.984375 -5.453125 10.71875 -3.859375 7.578125 -2.734375 C 3.125 -1.125 -0.6875 -1.890625 -2.28125 -6.328125 C -3.625 -10.0625 -2 -13.875 2.25 -15.40625 C 6.78125 -17.046875 9.71875 -13.859375 9.921875 -11.65625 C 9.515625 -10.78125 8.21875 -10.109375 6.921875 -9.640625 Z M 2.53125 -14.546875 C 0.8125 -13.921875 0.953125 -11.765625 1.921875 -9.078125 L 5.15625 -10.234375 C 6.890625 -10.875 4.953125 -15.40625 2.53125 -14.546875 Z M 2.53125 -14.546875 "/></g></g></g><g fill="#421a7b" fill-opacity="1"><g transform="translate(253.966446, 330.38207)"><g><path d="M -0.109375 -14.9375 C 2.203125 -15.96875 4.09375 -15.921875 5.515625 -15.328125 C 5.296875 -13.984375 4.796875 -12.8125 3.125 -12.40625 C 3.578125 -13.28125 1.9375 -15.21875 0.125 -14.40625 C -1.375 -13.71875 -1.640625 -12.375 -1.21875 -11.46875 C 0.015625 -8.71875 7.09375 -13.046875 9.1875 -8.390625 C 10.28125 -5.96875 9.15625 -4.09375 4.9375 -2.1875 C 3.609375 -1.59375 0.765625 -0.875 -0.734375 -1.640625 C -0.375 -2.9375 -0.78125 -4.5 0.140625 -5.6875 C 0.015625 -3.609375 1.890625 -1.984375 4.015625 -2.9375 C 5.15625 -3.453125 6.046875 -4.296875 5.359375 -5.8125 C 4.59375 -7.515625 2.96875 -7.453125 1.078125 -7.4375 C 0.453125 -7.421875 -2.453125 -6.953125 -3.65625 -9.609375 C -4.359375 -11.15625 -3.421875 -13.4375 -0.109375 -14.9375 Z M -0.109375 -14.9375 "/></g></g></g><g fill="#421a7b" fill-opacity="1"><g transform="translate(265.628083, 325.065693)"><g><path d="M -5.6875 -10.734375 L -6.125 -11.5625 C -4 -12.6875 -3.71875 -14.890625 -1.875 -16.9375 C -1.875 -16.9375 -1.421875 -16.078125 -0.578125 -14.5 L 0.8125 -15.25 L 1.25 -14.421875 L -0.140625 -13.671875 C 0.828125 -11.765625 2.234375 -9.109375 3.921875 -5.9375 C 5.046875 -3.8125 6.9375 -5.53125 6.9375 -5.53125 C 7.25 -4.734375 6.546875 -2.9375 5.328125 -2.296875 C 3.203125 -1.171875 1.03125 -1.203125 -0.46875 -4.03125 L -3.359375 -9.46875 C -3.984375 -10.734375 -4.609375 -11.3125 -5.6875 -10.734375 Z M -5.6875 -10.734375 "/></g></g></g><g fill="#421a7b" fill-opacity="1"><g transform="translate(274.053329, 320.526098)"><g><path d="M -0.109375 -1.96875 C 0.3125 -2.21875 0.84375 -2.0625 1.09375 -1.640625 C 1.34375 -1.21875 1.1875 -0.6875 0.765625 -0.4375 C 0.34375 -0.1875 -0.1875 -0.34375 -0.4375 -0.765625 C -0.6875 -1.1875 -0.53125 -1.71875 -0.109375 -1.96875 Z M -0.109375 -1.96875 "/></g></g></g><g fill="#421a7b" fill-opacity="1"><g transform="translate(276.229234, 319.393768)"><g/></g></g><g fill="#421a7b" fill-opacity="1"><g transform="translate(286.874911, 312.699278)"><g><path d="M 10.234375 -7.625 L 0 0 C 0 0 -0.359375 -0.484375 -0.96875 -1.296875 C -4.5625 -6.125 3.09375 -12.546875 0.03125 -16.65625 C -1.578125 -18.8125 -3.15625 -18.96875 -4.609375 -17.890625 C -7.03125 -16.078125 -4.96875 -12.671875 -3.703125 -12.59375 C -5.1875 -10.984375 -6.59375 -11.859375 -8.59375 -11.4375 C -7.828125 -12.296875 -9.671875 -15.078125 -5.078125 -18.5 C -2.78125 -20.203125 0.796875 -21.421875 3.421875 -17.90625 C 6.4375 -13.875 1.125 -7.1875 3.140625 -4.5 C 3.34375 -4.21875 3.953125 -4.015625 4.375 -4.328125 C 5.59375 -5.234375 5.46875 -5.15625 5.46875 -5.15625 C 8.15625 -7.140625 7.28125 -11.90625 7.28125 -11.90625 L 7.6875 -11.96875 Z M 10.234375 -7.625 "/></g></g></g><g fill="#421a7b" fill-opacity="1"><g transform="translate(298.529616, 304.009507)"><g><path d="M -6.46875 -18.21875 C -3.46875 -20.875 1.59375 -20.015625 4.890625 -16.296875 C 8.15625 -12.59375 8.421875 -7.46875 5.421875 -4.8125 C 2.4375 -2.171875 -2.671875 -3 -5.9375 -6.703125 C -9.234375 -10.421875 -9.453125 -15.578125 -6.46875 -18.21875 Z M -5.890625 -17.578125 C -7.25 -16.359375 -5.1875 -13.4375 -2.28125 -10.15625 C 0.65625 -6.84375 3.3125 -4.4375 4.671875 -5.65625 C 6.046875 -6.859375 4.109375 -9.90625 1.171875 -13.21875 C -1.734375 -16.5 -4.515625 -18.78125 -5.890625 -17.578125 Z M -5.890625 -17.578125 "/></g></g></g><g fill="#421a7b" fill-opacity="1"><g transform="translate(310.066325, 293.740133)"><g><path d="M 8.796875 -9.25 L 0 0 C 0 0 -0.4375 -0.421875 -1.171875 -1.109375 C -5.53125 -5.265625 0.921875 -12.875 -2.796875 -16.40625 C -4.734375 -18.265625 -6.3125 -18.171875 -7.5625 -16.859375 C -9.640625 -14.671875 -7.046875 -11.65625 -5.78125 -11.796875 C -6.96875 -9.953125 -8.5 -10.5625 -10.40625 -9.8125 C -9.796875 -10.78125 -12.078125 -13.21875 -8.125 -17.375 C -6.15625 -19.453125 -2.84375 -21.25 0.34375 -18.21875 C 3.984375 -14.75 -0.109375 -7.28125 2.328125 -4.953125 C 2.578125 -4.71875 3.21875 -4.640625 3.578125 -5.015625 C 4.625 -6.109375 4.515625 -6 4.515625 -6 C 6.828125 -8.421875 5.15625 -12.96875 5.15625 -12.96875 L 5.546875 -13.09375 Z M 8.796875 -9.25 "/></g></g></g><g fill="#421a7b" fill-opacity="1"><g transform="translate(319.941986, 283.196271)"><g><path d="M -11.6875 -9.71875 L -9.96875 -15.984375 L -9.78125 -16.21875 L 1.8125 -6.5625 C 3.46875 -5.1875 4.59375 -6.1875 4.59375 -6.1875 L 4.921875 -5.921875 L 0 0 L -0.328125 -0.265625 C -0.328125 -0.265625 0.4375 -1.53125 -1.109375 -2.828125 L -9.171875 -9.53125 C -10.375 -10.53125 -11.234375 -10.265625 -11.6875 -9.71875 Z M -11.6875 -9.71875 "/></g></g></g></svg>