<svg xmlns="http://www.w3.org/2000/svg" xmlns:xlink="http://www.w3.org/1999/xlink" width="500" zoomAndPan="magnify" viewBox="0 0 375 374.999991" height="500" preserveAspectRatio="xMidYMid meet" version="1.0"><defs><clipPath id="cb41b6dd74"><path d="M 187.5 0 C 83.945312 0 0 83.945312 0 187.5 C 0 291.054688 83.945312 375 187.5 375 C 291.054688 375 375 291.054688 375 187.5 C 375 83.945312 291.054688 0 187.5 0 Z M 187.5 0 " clip-rule="nonzero"/></clipPath><clipPath id="f173429519"><path d="M 22.175781 22.175781 L 352.824219 22.175781 L 352.824219 352.824219 L 22.175781 352.824219 Z M 22.175781 22.175781 " clip-rule="nonzero"/></clipPath><clipPath id="29277a08d7"><path d="M 187.5 22.175781 C 96.191406 22.175781 22.175781 96.191406 22.175781 187.5 C 22.175781 278.808594 96.191406 352.824219 187.5 352.824219 C 278.808594 352.824219 352.824219 278.808594 352.824219 187.5 C 352.824219 96.191406 278.808594 22.175781 187.5 22.175781 Z M 187.5 22.175781 " clip-rule="nonzero"/></clipPath><clipPath id="cee384309e"><path d="M 114 201 L 143 201 L 143 229 L 114 229 Z M 114 201 " clip-rule="nonzero"/></clipPath><clipPath id="6d1222b3a8"><path d="M 109.246094 209.878906 L 131.894531 194.371094 L 146.785156 216.113281 L 124.136719 231.621094 Z M 109.246094 209.878906 " clip-rule="nonzero"/></clipPath><clipPath id="fa1e9b6851"><path d="M 123.320312 202.21875 L 123.332031 202.226562 C 126.65625 204.789062 131.253906 204.921875 134.71875 202.546875 C 135.535156 201.988281 136.621094 202.019531 137.410156 202.621094 C 138.195312 203.226562 138.503906 204.269531 138.171875 205.207031 L 138.171875 205.210938 C 136.765625 209.171875 138.066406 213.585938 141.394531 216.152344 L 141.40625 216.164062 C 142.191406 216.769531 142.496094 217.8125 142.164062 218.746094 C 141.832031 219.679688 140.933594 220.289062 139.945312 220.261719 C 135.746094 220.140625 131.949219 222.742188 130.542969 226.699219 C 130.214844 227.632812 129.316406 228.246094 128.328125 228.21875 C 127.335938 228.195312 126.476562 227.53125 126.195312 226.582031 L 126.1875 226.566406 C 125 222.535156 121.351562 219.722656 117.152344 219.601562 L 117.148438 219.601562 C 116.15625 219.574219 115.292969 218.910156 115.015625 217.957031 C 114.734375 217.007812 115.101562 215.980469 115.917969 215.421875 C 119.382812 213.050781 120.921875 208.714844 119.734375 204.691406 L 119.730469 204.675781 C 119.449219 203.726562 119.816406 202.703125 120.632812 202.144531 C 121.449219 201.582031 122.535156 201.613281 123.320312 202.21875 Z M 123.320312 202.21875 " clip-rule="nonzero"/></clipPath><clipPath id="7e0f3be1b9"><path d="M 271 210 L 299 210 L 299 239 L 271 239 Z M 271 210 " clip-rule="nonzero"/></clipPath><clipPath id="3c9f288e41"><path d="M 278.554688 204.9375 L 303.128906 217.175781 L 291.378906 240.765625 L 266.808594 228.527344 Z M 278.554688 204.9375 " clip-rule="nonzero"/></clipPath><clipPath id="4d379c19db"><path d="M 292.097656 213.507812 L 292.097656 213.519531 C 291.476562 217.671875 293.597656 221.75 297.355469 223.621094 C 298.246094 224.066406 298.746094 225.027344 298.601562 226.011719 C 298.457031 226.992188 297.695312 227.769531 296.714844 227.933594 L 296.710938 227.933594 C 292.566406 228.632812 289.34375 231.917969 288.71875 236.074219 L 288.71875 236.09375 C 288.570312 237.074219 287.808594 237.847656 286.832031 238.011719 C 285.855469 238.171875 284.882812 237.6875 284.425781 236.808594 C 282.488281 233.082031 278.367188 231.03125 274.226562 231.730469 C 273.25 231.894531 272.277344 231.410156 271.820312 230.53125 C 271.359375 229.652344 271.519531 228.578125 272.214844 227.871094 L 272.226562 227.859375 C 275.167969 224.859375 275.847656 220.308594 273.910156 216.578125 L 273.90625 216.574219 C 273.449219 215.691406 273.609375 214.617188 274.304688 213.910156 C 275 213.203125 276.074219 213.023438 276.960938 213.464844 C 280.71875 215.335938 285.253906 214.574219 288.195312 211.578125 L 288.203125 211.566406 C 288.898438 210.859375 289.96875 210.679688 290.855469 211.121094 C 291.742188 211.5625 292.246094 212.527344 292.097656 213.507812 Z M 292.097656 213.507812 " clip-rule="nonzero"/></clipPath><clipPath id="ec5b8dbe5c"><path d="M 135 296 L 164 296 L 164 324 L 135 324 Z M 135 296 " clip-rule="nonzero"/></clipPath><clipPath id="ee6596d413"><path d="M 142.941406 290.738281 L 167.511719 302.976562 L 155.761719 326.5625 L 131.191406 314.324219 Z M 142.941406 290.738281 " clip-rule="nonzero"/></clipPath><clipPath id="1d51c39294"><path d="M 156.480469 299.304688 L 156.480469 299.320312 C 155.859375 303.46875 157.980469 307.550781 161.738281 309.421875 C 162.628906 309.863281 163.128906 310.828125 162.984375 311.808594 C 162.839844 312.789062 162.078125 313.566406 161.101562 313.730469 L 161.09375 313.730469 C 156.949219 314.433594 153.726562 317.71875 153.105469 321.875 L 153.101562 321.890625 C 152.953125 322.871094 152.191406 323.644531 151.214844 323.808594 C 150.238281 323.972656 149.265625 323.488281 148.808594 322.605469 C 146.871094 318.878906 142.753906 316.828125 138.613281 317.527344 C 137.632812 317.691406 136.660156 317.210938 136.203125 316.332031 C 135.742188 315.453125 135.902344 314.378906 136.597656 313.671875 L 136.609375 313.660156 C 139.550781 310.65625 140.230469 306.105469 138.292969 302.375 L 138.289062 302.371094 C 137.832031 301.492188 137.992188 300.414062 138.691406 299.707031 C 139.386719 299 140.457031 298.820312 141.34375 299.261719 C 145.101562 301.132812 149.636719 300.371094 152.578125 297.375 L 152.585938 297.363281 C 153.28125 296.65625 154.351562 296.476562 155.238281 296.917969 C 156.128906 297.359375 156.628906 298.324219 156.480469 299.304688 Z M 156.480469 299.304688 " clip-rule="nonzero"/></clipPath><clipPath id="c57a13d7b6"><path d="M 141 52 L 169 52 L 169 81 L 141 81 Z M 141 52 " clip-rule="nonzero"/></clipPath><clipPath id="adc3eed1c1"><path d="M 134.847656 70.382812 L 149.675781 47.28125 L 171.851562 61.515625 L 157.027344 84.617188 Z M 134.847656 70.382812 " clip-rule="nonzero"/></clipPath><clipPath id="aa00dead11"><path d="M 144.832031 57.847656 L 144.847656 57.851562 C 148.90625 58.921875 153.191406 57.25 155.457031 53.71875 C 155.992188 52.882812 157.007812 52.488281 157.964844 52.738281 C 158.925781 52.988281 159.617188 53.832031 159.675781 54.820312 L 159.675781 54.828125 C 159.921875 59.023438 162.839844 62.582031 166.902344 63.652344 L 166.917969 63.65625 C 167.878906 63.910156 168.566406 64.75 168.621094 65.738281 C 168.679688 66.726562 168.089844 67.640625 167.167969 68 C 163.253906 69.523438 160.765625 73.394531 161.011719 77.589844 C 161.070312 78.578125 160.484375 79.492188 159.5625 79.851562 C 158.640625 80.214844 157.589844 79.941406 156.960938 79.171875 L 156.949219 79.160156 C 154.285156 75.910156 149.832031 74.742188 145.914062 76.265625 L 145.910156 76.265625 C 144.984375 76.625 143.933594 76.347656 143.304688 75.582031 C 142.679688 74.8125 142.617188 73.726562 143.152344 72.890625 C 145.417969 69.359375 145.152344 64.769531 142.492188 61.523438 L 142.480469 61.511719 C 141.855469 60.746094 141.789062 59.660156 142.328125 58.824219 C 142.863281 57.992188 143.875 57.597656 144.832031 57.847656 Z M 144.832031 57.847656 " clip-rule="nonzero"/></clipPath><clipPath id="857b00b3bd"><path d="M 184 135 L 212 135 L 212 163 L 184 163 Z M 184 135 " clip-rule="nonzero"/></clipPath><clipPath id="2bcdfa3bdd"><path d="M 177.535156 152.820312 L 192.363281 129.714844 L 214.542969 143.949219 L 199.714844 167.050781 Z M 177.535156 152.820312 " clip-rule="nonzero"/></clipPath><clipPath id="0eea4ee71f"><path d="M 187.519531 140.285156 L 187.535156 140.289062 C 191.59375 141.355469 195.878906 139.683594 198.144531 136.152344 C 198.683594 135.316406 199.695312 134.921875 200.65625 135.171875 C 201.613281 135.425781 202.304688 136.265625 202.363281 137.253906 L 202.363281 137.261719 C 202.609375 141.457031 205.527344 145.019531 209.589844 146.085938 L 209.605469 146.089844 C 210.566406 146.34375 211.253906 147.183594 211.308594 148.171875 C 211.367188 149.164062 210.777344 150.078125 209.855469 150.4375 C 205.941406 151.957031 203.453125 155.832031 203.699219 160.023438 C 203.757812 161.011719 203.171875 161.925781 202.25 162.289062 C 201.328125 162.648438 200.277344 162.375 199.648438 161.609375 L 199.636719 161.59375 C 196.972656 158.34375 192.519531 157.175781 188.601562 158.699219 L 188.597656 158.699219 C 187.671875 159.058594 186.621094 158.785156 185.992188 158.015625 C 185.367188 157.246094 185.304688 156.160156 185.839844 155.328125 C 188.105469 151.792969 187.839844 147.203125 185.179688 143.957031 L 185.171875 143.945312 C 184.542969 143.179688 184.476562 142.09375 185.015625 141.261719 C 185.550781 140.425781 186.5625 140.03125 187.519531 140.285156 Z M 187.519531 140.285156 " clip-rule="nonzero"/></clipPath><clipPath id="487ebc32ca"><path d="M 36 185 L 63 185 L 63 213 L 36 213 Z M 36 185 " clip-rule="nonzero"/></clipPath><clipPath id="b908e1c6f9"><path d="M 28.96875 203.234375 L 43.796875 180.132812 L 65.972656 194.367188 L 51.144531 217.46875 Z M 28.96875 203.234375 " clip-rule="nonzero"/></clipPath><clipPath id="3a26733a11"><path d="M 38.953125 190.703125 L 38.964844 190.707031 C 43.027344 191.773438 47.3125 190.101562 49.578125 186.570312 C 50.113281 185.734375 51.125 185.339844 52.085938 185.589844 C 53.046875 185.84375 53.734375 186.683594 53.792969 187.671875 L 53.792969 187.679688 C 54.042969 191.875 56.957031 195.433594 61.023438 196.503906 L 61.039062 196.507812 C 61.996094 196.761719 62.683594 197.601562 62.742188 198.589844 C 62.796875 199.582031 62.210938 200.492188 61.285156 200.851562 C 57.371094 202.375 54.886719 206.246094 55.132812 210.441406 C 55.191406 211.429688 54.605469 212.34375 53.683594 212.707031 C 52.757812 213.066406 51.707031 212.792969 51.082031 212.023438 L 51.070312 212.011719 C 48.40625 208.761719 43.953125 207.59375 40.035156 209.117188 L 40.03125 209.117188 C 39.105469 209.476562 38.054688 209.199219 37.425781 208.433594 C 36.796875 207.664062 36.734375 206.578125 37.273438 205.746094 C 39.539062 202.210938 39.273438 197.621094 36.609375 194.375 L 36.601562 194.363281 C 35.972656 193.597656 35.910156 192.511719 36.445312 191.679688 C 36.980469 190.84375 37.992188 190.449219 38.953125 190.703125 Z M 38.953125 190.703125 " clip-rule="nonzero"/></clipPath><clipPath id="9a597f4865"><path d="M 226 276 L 253 276 L 253 304 L 226 304 Z M 226 276 " clip-rule="nonzero"/></clipPath><clipPath id="3b08b32275"><path d="M 219.089844 294.011719 L 233.917969 270.910156 L 256.09375 285.144531 L 241.269531 308.246094 Z M 219.089844 294.011719 " clip-rule="nonzero"/></clipPath><clipPath id="1ef8142e99"><path d="M 229.074219 281.476562 L 229.089844 281.480469 C 233.148438 282.546875 237.433594 280.878906 239.699219 277.347656 C 240.234375 276.511719 241.25 276.117188 242.207031 276.367188 C 243.167969 276.617188 243.859375 277.457031 243.917969 278.449219 L 243.917969 278.453125 C 244.164062 282.648438 247.082031 286.210938 251.144531 287.28125 L 251.160156 287.285156 C 252.121094 287.535156 252.808594 288.378906 252.863281 289.367188 C 252.921875 290.355469 252.332031 291.269531 251.410156 291.628906 C 247.496094 293.152344 245.007812 297.023438 245.253906 301.214844 C 245.3125 302.207031 244.726562 303.121094 243.804688 303.480469 C 242.882812 303.84375 241.832031 303.566406 241.203125 302.800781 L 241.191406 302.789062 C 238.527344 299.539062 234.074219 298.367188 230.15625 299.890625 L 230.152344 299.894531 C 229.226562 300.253906 228.175781 299.976562 227.546875 299.207031 C 226.921875 298.441406 226.859375 297.355469 227.394531 296.519531 C 229.660156 292.988281 229.394531 288.398438 226.734375 285.148438 L 226.722656 285.140625 C 226.097656 284.371094 226.03125 283.289062 226.566406 282.453125 C 227.105469 281.621094 228.117188 281.226562 229.074219 281.476562 Z M 229.074219 281.476562 " clip-rule="nonzero"/></clipPath><clipPath id="29183be5cb"><path d="M 247 66 L 275 66 L 275 93 L 247 93 Z M 247 66 " clip-rule="nonzero"/></clipPath><clipPath id="03ec43671d"><path d="M 241.761719 74.328125 L 264.410156 58.816406 L 279.300781 80.5625 L 256.652344 96.070312 Z M 241.761719 74.328125 " clip-rule="nonzero"/></clipPath><clipPath id="ed3e8199cb"><path d="M 255.835938 66.667969 L 255.847656 66.675781 C 259.171875 69.238281 263.769531 69.367188 267.234375 66.996094 C 268.050781 66.4375 269.140625 66.464844 269.925781 67.070312 C 270.710938 67.675781 271.019531 68.71875 270.6875 69.652344 L 270.6875 69.660156 C 269.28125 73.621094 270.582031 78.035156 273.910156 80.601562 L 273.921875 80.613281 C 274.707031 81.21875 275.015625 82.257812 274.679688 83.191406 C 274.347656 84.125 273.449219 84.738281 272.460938 84.710938 C 268.261719 84.589844 264.464844 87.1875 263.058594 91.148438 C 262.730469 92.082031 261.832031 92.695312 260.84375 92.667969 C 259.851562 92.640625 258.992188 91.980469 258.710938 91.03125 L 258.707031 91.011719 C 257.515625 86.980469 253.871094 84.171875 249.667969 84.050781 L 249.664062 84.050781 C 248.671875 84.023438 247.808594 83.359375 247.53125 82.40625 C 247.25 81.453125 247.617188 80.429688 248.433594 79.871094 C 251.898438 77.496094 253.4375 73.164062 252.25 69.140625 L 252.246094 69.125 C 251.964844 68.175781 252.332031 67.152344 253.148438 66.589844 C 253.964844 66.03125 255.050781 66.0625 255.835938 66.667969 Z M 255.835938 66.667969 " clip-rule="nonzero"/></clipPath><clipPath id="d0f2d6fb7d"><path d="M 303.359375 135.980469 L 322.90625 135.980469 L 322.90625 155.527344 L 303.359375 155.527344 Z M 303.359375 135.980469 " clip-rule="nonzero"/></clipPath><clipPath id="aeb9b015a6"><path d="M 313.132812 135.980469 C 307.734375 135.980469 303.359375 140.355469 303.359375 145.753906 C 303.359375 151.152344 307.734375 155.527344 313.132812 155.527344 C 318.53125 155.527344 322.90625 151.152344 322.90625 145.753906 C 322.90625 140.355469 318.53125 135.980469 313.132812 135.980469 Z M 313.132812 135.980469 " clip-rule="nonzero"/></clipPath><clipPath id="832ca7f0cc"><path d="M 55.46875 108.882812 L 75.015625 108.882812 L 75.015625 128.429688 L 55.46875 128.429688 Z M 55.46875 108.882812 " clip-rule="nonzero"/></clipPath><clipPath id="16c8b36121"><path d="M 65.242188 108.882812 C 59.847656 108.882812 55.46875 113.257812 55.46875 118.65625 C 55.46875 124.050781 59.847656 128.429688 65.242188 128.429688 C 70.640625 128.429688 75.015625 124.050781 75.015625 118.65625 C 75.015625 113.257812 70.640625 108.882812 65.242188 108.882812 Z M 65.242188 108.882812 " clip-rule="nonzero"/></clipPath><clipPath id="3374159da5"><path d="M 61.179688 222.253906 L 80.726562 222.253906 L 80.726562 241.800781 L 61.179688 241.800781 Z M 61.179688 222.253906 " clip-rule="nonzero"/></clipPath><clipPath id="d2f7004cde"><path d="M 70.953125 222.253906 C 65.554688 222.253906 61.179688 226.628906 61.179688 232.027344 C 61.179688 237.425781 65.554688 241.800781 70.953125 241.800781 C 76.347656 241.800781 80.726562 237.425781 80.726562 232.027344 C 80.726562 226.628906 76.347656 222.253906 70.953125 222.253906 Z M 70.953125 222.253906 " clip-rule="nonzero"/></clipPath><clipPath id="13533a5ed2"><path d="M 192.75 250.34375 L 212.296875 250.34375 L 212.296875 269.890625 L 192.75 269.890625 Z M 192.75 250.34375 " clip-rule="nonzero"/></clipPath><clipPath id="4809d25af7"><path d="M 202.523438 250.34375 C 197.125 250.34375 192.75 254.722656 192.75 260.117188 C 192.75 265.515625 197.125 269.890625 202.523438 269.890625 C 207.921875 269.890625 212.296875 265.515625 212.296875 260.117188 C 212.296875 254.722656 207.921875 250.34375 202.523438 250.34375 Z M 202.523438 250.34375 " clip-rule="nonzero"/></clipPath><clipPath id="7506391bb6"><path d="M 182.976562 91.996094 L 202.523438 91.996094 L 202.523438 111.542969 L 182.976562 111.542969 Z M 182.976562 91.996094 " clip-rule="nonzero"/></clipPath><clipPath id="5bf7833d52"><path d="M 192.75 91.996094 C 187.351562 91.996094 182.976562 96.371094 182.976562 101.769531 C 182.976562 107.164062 187.351562 111.542969 192.75 111.542969 C 198.148438 111.542969 202.523438 107.164062 202.523438 101.769531 C 202.523438 96.371094 198.148438 91.996094 192.75 91.996094 Z M 192.75 91.996094 " clip-rule="nonzero"/></clipPath><clipPath id="d9ee801aba"><path d="M 235.042969 172.164062 L 254.589844 172.164062 L 254.589844 191.710938 L 235.042969 191.710938 Z M 235.042969 172.164062 " clip-rule="nonzero"/></clipPath><clipPath id="79cfba6880"><path d="M 244.816406 172.164062 C 239.417969 172.164062 235.042969 176.539062 235.042969 181.9375 C 235.042969 187.332031 239.417969 191.710938 244.816406 191.710938 C 250.214844 191.710938 254.589844 187.332031 254.589844 181.9375 C 254.589844 176.539062 250.214844 172.164062 244.816406 172.164062 Z M 244.816406 172.164062 " clip-rule="nonzero"/></clipPath><clipPath id="172d93b8b0"><path d="M 261.777344 294.632812 L 281.324219 294.632812 L 281.324219 314.179688 L 261.777344 314.179688 Z M 261.777344 294.632812 " clip-rule="nonzero"/></clipPath><clipPath id="fda90b4cd6"><path d="M 271.550781 294.632812 C 266.15625 294.632812 261.777344 299.007812 261.777344 304.40625 C 261.777344 309.804688 266.15625 314.179688 271.550781 314.179688 C 276.949219 314.179688 281.324219 309.804688 281.324219 304.40625 C 281.324219 299.007812 276.949219 294.632812 271.550781 294.632812 Z M 271.550781 294.632812 " clip-rule="nonzero"/></clipPath><clipPath id="4befa4759f"><path d="M 104.207031 288.503906 L 123.753906 288.503906 L 123.753906 308.050781 L 104.207031 308.050781 Z M 104.207031 288.503906 " clip-rule="nonzero"/></clipPath><clipPath id="2ac63b580b"><path d="M 113.980469 288.503906 C 108.582031 288.503906 104.207031 292.882812 104.207031 298.277344 C 104.207031 303.675781 108.582031 308.050781 113.980469 308.050781 C 119.375 308.050781 123.753906 303.675781 123.753906 298.277344 C 123.753906 292.882812 119.375 288.503906 113.980469 288.503906 Z M 113.980469 288.503906 " clip-rule="nonzero"/></clipPath><clipPath id="db2dc943b7"><path d="M 314.507812 227.429688 L 334.054688 227.429688 L 334.054688 246.976562 L 314.507812 246.976562 Z M 314.507812 227.429688 " clip-rule="nonzero"/></clipPath><clipPath id="556103e83f"><path d="M 324.28125 227.429688 C 318.882812 227.429688 314.507812 231.804688 314.507812 237.203125 C 314.507812 242.601562 318.882812 246.976562 324.28125 246.976562 C 329.679688 246.976562 334.054688 242.601562 334.054688 237.203125 C 334.054688 231.804688 329.679688 227.429688 324.28125 227.429688 Z M 324.28125 227.429688 " clip-rule="nonzero"/></clipPath><clipPath id="b2ddbf7596"><path d="M 97.53125 147.984375 L 117.078125 147.984375 L 117.078125 167.53125 L 97.53125 167.53125 Z M 97.53125 147.984375 " clip-rule="nonzero"/></clipPath><clipPath id="56535438df"><path d="M 107.304688 147.984375 C 101.910156 147.984375 97.53125 152.359375 97.53125 157.757812 C 97.53125 163.15625 101.910156 167.53125 107.304688 167.53125 C 112.703125 167.53125 117.078125 163.15625 117.078125 157.757812 C 117.078125 152.359375 112.703125 147.984375 107.304688 147.984375 Z M 107.304688 147.984375 " clip-rule="nonzero"/></clipPath></defs><g clip-path="url(#cb41b6dd74)"><rect x="-37.5" width="450" fill="#ffc65c" y="-37.499999" height="449.999989" fill-opacity="1"/></g><g clip-path="url(#f173429519)"><g clip-path="url(#29277a08d7)"><path fill="#fd7ab4" d="M 22.175781 22.175781 L 352.824219 22.175781 L 352.824219 352.824219 L 22.175781 352.824219 Z M 22.175781 22.175781 " fill-opacity="1" fill-rule="nonzero"/></g></g><path stroke-linecap="round" transform="matrix(-0.448927, -0.600803, 0.600803, -0.448927, 76.515131, 188.271213)" fill="none" stroke-linejoin="miter" d="M 7.001424 7.000829 L 42.274398 6.999247 " stroke="#ffc65c" stroke-width="14" stroke-opacity="1" stroke-miterlimit="4"/><path stroke-linecap="round" transform="matrix(0.404409, -0.631628, 0.631628, 0.404409, 173.114319, 320.780105)" fill="none" stroke-linejoin="miter" d="M 6.998381 7.002009 L 42.274114 7.001719 " stroke="#ffc65c" stroke-width="14" stroke-opacity="1" stroke-miterlimit="4"/><path stroke-linecap="round" transform="matrix(-0.226286, -0.715049, 0.715049, -0.226286, 309.500171, 210.214309)" fill="none" stroke-linejoin="miter" d="M 6.999813 7.000448 L 42.273229 7.002406 " stroke="#ffc65c" stroke-width="14" stroke-opacity="1" stroke-miterlimit="4"/><path stroke-linecap="round" transform="matrix(-0.701525, 0.26526, -0.26526, -0.701525, 227.285541, 63.160726)" fill="none" stroke-linejoin="miter" d="M 6.997491 7.001047 L 42.273349 6.998031 " stroke="#ffc65c" stroke-width="14" stroke-opacity="1" stroke-miterlimit="4"/><path stroke-linecap="round" transform="matrix(-0.701525, 0.26526, -0.26526, -0.701525, 206.63479, 198.192688)" fill="none" stroke-linejoin="miter" d="M 7.000985 6.997814 L 42.275 6.99967 " stroke="#feefc4" stroke-width="14" stroke-opacity="1" stroke-miterlimit="4"/><path stroke-linecap="round" transform="matrix(-0.0429469, 0.748769, -0.748769, -0.0429469, 111.560256, 71.929404)" fill="none" stroke-linejoin="miter" d="M 7.001143 6.998213 L 42.272626 6.999315 " stroke="#feefc4" stroke-width="14" stroke-opacity="1" stroke-miterlimit="4"/><path stroke-linecap="round" transform="matrix(0.463327, 0.58977, -0.58977, 0.463327, 280.440308, 256.87765)" fill="none" stroke-linejoin="miter" d="M 7.000278 7.001104 L 42.271689 6.998468 " stroke="#feefc4" stroke-width="14" stroke-opacity="1" stroke-miterlimit="4"/><path stroke-linecap="round" transform="matrix(-0.17486, 0.729331, -0.729331, -0.17486, 159.105126, 243.377458)" fill="none" stroke-linejoin="miter" d="M 6.998293 6.998276 L 42.272456 6.998175 " stroke="#ffc65c" stroke-width="14" stroke-opacity="1" stroke-miterlimit="4"/><path stroke-linecap="round" transform="matrix(-0.17486, 0.729331, -0.729331, -0.17486, 299.029379, 91.778476)" fill="none" stroke-linejoin="miter" d="M 7.000752 7.000947 L 42.274915 7.000846 " stroke="#feefc4" stroke-width="14" stroke-opacity="1" stroke-miterlimit="4"/><path stroke-linecap="round" transform="matrix(-0.405213, 0.631112, -0.631112, -0.405213, 165.434173, 131.267012)" fill="none" stroke-linejoin="miter" d="M 6.99942 7.000707 L 42.272907 7.000238 " stroke="#ffc65c" stroke-width="14" stroke-opacity="1" stroke-miterlimit="4"/><path stroke-linecap="round" transform="matrix(0.46698, 0.586881, -0.586881, 0.46698, 233.7373, 119.716192)" fill="none" stroke-linejoin="miter" d="M 7.000924 6.999972 L 42.272725 6.997526 " stroke="#ffc65c" stroke-width="14" stroke-opacity="1" stroke-miterlimit="4"/><path stroke-linecap="round" transform="matrix(-0.382428, 0.645174, -0.645174, -0.382428, 252.538464, 214.046441)" fill="none" stroke-linejoin="miter" d="M 7.002234 7.001008 L 42.270705 7.002005 " stroke="#ffc65c" stroke-width="14" stroke-opacity="1" stroke-miterlimit="4"/><g clip-path="url(#cee384309e)"><g clip-path="url(#6d1222b3a8)"><g clip-path="url(#fa1e9b6851)"><path fill="#b3d7de" d="M 102.527344 208.324219 L 132.988281 187.464844 L 152.84375 216.457031 L 122.378906 237.316406 Z M 102.527344 208.324219 " fill-opacity="1" fill-rule="nonzero"/></g></g></g><g clip-path="url(#7e0f3be1b9)"><g clip-path="url(#3c9f288e41)"><g clip-path="url(#4d379c19db)"><path fill="#421a7b" d="M 276.644531 198.3125 L 309.691406 214.773438 L 294.027344 246.222656 L 260.976562 229.765625 Z M 276.644531 198.3125 " fill-opacity="1" fill-rule="nonzero"/></g></g></g><g clip-path="url(#ec5b8dbe5c)"><g clip-path="url(#ee6596d413)"><g clip-path="url(#1d51c39294)"><path fill="#421a7b" d="M 141.027344 284.109375 L 174.074219 300.570312 L 158.410156 332.023438 L 125.363281 315.5625 Z M 141.027344 284.109375 " fill-opacity="1" fill-rule="nonzero"/></g></g></g><g clip-path="url(#c57a13d7b6)"><g clip-path="url(#adc3eed1c1)"><g clip-path="url(#aa00dead11)"><path fill="#421a7b" d="M 128.054688 71.566406 L 147.996094 40.496094 L 177.566406 59.476562 L 157.625 90.546875 Z M 128.054688 71.566406 " fill-opacity="1" fill-rule="nonzero"/></g></g></g><g clip-path="url(#857b00b3bd)"><g clip-path="url(#2bcdfa3bdd)"><g clip-path="url(#0eea4ee71f)"><path fill="#4fa0a9" d="M 170.742188 154.003906 L 190.683594 122.929688 L 220.253906 141.910156 L 200.3125 172.980469 Z M 170.742188 154.003906 " fill-opacity="1" fill-rule="nonzero"/></g></g></g><g clip-path="url(#487ebc32ca)"><g clip-path="url(#b908e1c6f9)"><g clip-path="url(#3a26733a11)"><path fill="#4fa0a9" d="M 22.175781 204.421875 L 42.117188 173.347656 L 71.6875 192.328125 L 51.742188 223.398438 Z M 22.175781 204.421875 " fill-opacity="1" fill-rule="nonzero"/></g></g></g><g clip-path="url(#9a597f4865)"><g clip-path="url(#3b08b32275)"><g clip-path="url(#1ef8142e99)"><path fill="#b3d7de" d="M 212.296875 295.195312 L 232.238281 264.125 L 261.808594 283.101562 L 241.867188 314.175781 Z M 212.296875 295.195312 " fill-opacity="1" fill-rule="nonzero"/></g></g></g><g clip-path="url(#29183be5cb)"><g clip-path="url(#03ec43671d)"><g clip-path="url(#ed3e8199cb)"><path fill="#b3d7de" d="M 235.042969 72.773438 L 265.507812 51.914062 L 285.359375 80.90625 L 254.894531 101.765625 Z M 235.042969 72.773438 " fill-opacity="1" fill-rule="nonzero"/></g></g></g><g clip-path="url(#d0f2d6fb7d)"><g clip-path="url(#aeb9b015a6)"><path fill="#ffffff" d="M 303.359375 135.980469 L 322.90625 135.980469 L 322.90625 155.527344 L 303.359375 155.527344 Z M 303.359375 135.980469 " fill-opacity="1" fill-rule="nonzero"/></g></g><g clip-path="url(#832ca7f0cc)"><g clip-path="url(#16c8b36121)"><path fill="#ffb1bd" d="M 55.46875 108.882812 L 75.015625 108.882812 L 75.015625 128.429688 L 55.46875 128.429688 Z M 55.46875 108.882812 " fill-opacity="1" fill-rule="nonzero"/></g></g><g clip-path="url(#3374159da5)"><g clip-path="url(#d2f7004cde)"><path fill="#d8a3d7" d="M 61.179688 222.253906 L 80.726562 222.253906 L 80.726562 241.800781 L 61.179688 241.800781 Z M 61.179688 222.253906 " fill-opacity="1" fill-rule="nonzero"/></g></g><g clip-path="url(#13533a5ed2)"><g clip-path="url(#4809d25af7)"><path fill="#ffffff" d="M 192.75 250.34375 L 212.296875 250.34375 L 212.296875 269.890625 L 192.75 269.890625 Z M 192.75 250.34375 " fill-opacity="1" fill-rule="nonzero"/></g></g><g clip-path="url(#7506391bb6)"><g clip-path="url(#5bf7833d52)"><path fill="#d8a3d7" d="M 182.976562 91.996094 L 202.523438 91.996094 L 202.523438 111.542969 L 182.976562 111.542969 Z M 182.976562 91.996094 " fill-opacity="1" fill-rule="nonzero"/></g></g><g clip-path="url(#d9ee801aba)"><g clip-path="url(#79cfba6880)"><path fill="#d8a3d7" d="M 235.042969 172.164062 L 254.589844 172.164062 L 254.589844 191.710938 L 235.042969 191.710938 Z M 235.042969 172.164062 " fill-opacity="1" fill-rule="nonzero"/></g></g><g clip-path="url(#172d93b8b0)"><g clip-path="url(#fda90b4cd6)"><path fill="#ffb1bd" d="M 261.777344 294.632812 L 281.324219 294.632812 L 281.324219 314.179688 L 261.777344 314.179688 Z M 261.777344 294.632812 " fill-opacity="1" fill-rule="nonzero"/></g></g><g clip-path="url(#4befa4759f)"><g clip-path="url(#2ac63b580b)"><path fill="#ffffff" d="M 104.207031 288.503906 L 123.753906 288.503906 L 123.753906 308.050781 L 104.207031 308.050781 Z M 104.207031 288.503906 " fill-opacity="1" fill-rule="nonzero"/></g></g><g clip-path="url(#db2dc943b7)"><g clip-path="url(#556103e83f)"><path fill="#ffffff" d="M 314.507812 227.429688 L 334.054688 227.429688 L 334.054688 246.976562 L 314.507812 246.976562 Z M 314.507812 227.429688 " fill-opacity="1" fill-rule="nonzero"/></g></g><g clip-path="url(#b2ddbf7596)"><g clip-path="url(#56535438df)"><path fill="#ffffff" d="M 97.53125 147.984375 L 117.078125 147.984375 L 117.078125 167.53125 L 97.53125 167.53125 Z M 97.53125 147.984375 " fill-opacity="1" fill-rule="nonzero"/></g></g><path stroke-linecap="round" transform="matrix(0.241244, 0.710142, -0.710142, 0.241244, 88.198981, 250.384174)" fill="none" stroke-linejoin="miter" d="M 6.9994 6.998009 L 42.274185 7.000864 " stroke="#feefc4" stroke-width="14" stroke-opacity="1" stroke-miterlimit="4"/></svg>