<svg xmlns="http://www.w3.org/2000/svg" xmlns:xlink="http://www.w3.org/1999/xlink" width="500" zoomAndPan="magnify" viewBox="0 0 375 149.999998" height="200" preserveAspectRatio="xMidYMid meet" version="1.0"><defs><g/><clipPath id="593bb5090c"><path d="M 115.214844 88.148438 L 157.789062 88.148438 L 157.789062 130.726562 L 115.214844 130.726562 Z M 115.214844 88.148438 " clip-rule="nonzero"/></clipPath><clipPath id="a1309a9b8b"><path d="M 136.5 88.148438 C 124.742188 88.148438 115.214844 97.679688 115.214844 109.4375 C 115.214844 121.195312 124.742188 130.726562 136.5 130.726562 C 148.257812 130.726562 157.789062 121.195312 157.789062 109.4375 C 157.789062 97.679688 148.257812 88.148438 136.5 88.148438 Z M 136.5 88.148438 " clip-rule="nonzero"/></clipPath><clipPath id="5d61cd7911"><path d="M 117.730469 90.667969 L 155.269531 90.667969 L 155.269531 128.207031 L 117.730469 128.207031 Z M 117.730469 90.667969 " clip-rule="nonzero"/></clipPath><clipPath id="19ef44af35"><path d="M 136.5 90.667969 C 126.132812 90.667969 117.730469 99.070312 117.730469 109.4375 C 117.730469 119.804688 126.132812 128.207031 136.5 128.207031 C 146.867188 128.207031 155.269531 119.804688 155.269531 109.4375 C 155.269531 99.070312 146.867188 90.667969 136.5 90.667969 Z M 136.5 90.667969 " clip-rule="nonzero"/></clipPath><clipPath id="5ab138dbbc"><path d="M 128 111 L 132 111 L 132 115 L 128 115 Z M 128 111 " clip-rule="nonzero"/></clipPath><clipPath id="96daa6d8c6"><path d="M 127.617188 111.976562 L 130.1875 110.214844 L 131.878906 112.683594 L 129.308594 114.445312 Z M 127.617188 111.976562 " clip-rule="nonzero"/></clipPath><clipPath id="b46bac91e8"><path d="M 129.214844 111.109375 C 129.59375 111.398438 130.117188 111.414062 130.507812 111.144531 C 130.601562 111.082031 130.726562 111.085938 130.816406 111.152344 C 130.902344 111.222656 130.9375 111.339844 130.902344 111.445312 L 130.902344 111.449219 C 130.742188 111.898438 130.890625 112.398438 131.265625 112.691406 L 131.269531 112.691406 C 131.359375 112.757812 131.390625 112.878906 131.355469 112.984375 C 131.316406 113.089844 131.214844 113.160156 131.101562 113.15625 C 130.625 113.140625 130.195312 113.4375 130.035156 113.886719 C 129.996094 113.992188 129.894531 114.0625 129.785156 114.058594 C 129.671875 114.058594 129.574219 113.980469 129.542969 113.875 L 129.539062 113.871094 C 129.40625 113.414062 128.992188 113.09375 128.515625 113.082031 C 128.402344 113.078125 128.304688 113.003906 128.273438 112.894531 C 128.242188 112.785156 128.28125 112.671875 128.375 112.605469 C 128.769531 112.335938 128.941406 111.84375 128.808594 111.386719 C 128.777344 111.277344 128.816406 111.164062 128.910156 111.097656 C 129.003906 111.035156 129.125 111.039062 129.214844 111.109375 Z M 129.214844 111.109375 " clip-rule="nonzero"/></clipPath><clipPath id="f9f74ce78f"><path d="M 146 112 L 150 112 L 150 116 L 146 116 Z M 146 112 " clip-rule="nonzero"/></clipPath><clipPath id="33d6d50d03"><path d="M 146.835938 111.417969 L 149.628906 112.808594 L 148.292969 115.484375 L 145.503906 114.097656 Z M 146.835938 111.417969 " clip-rule="nonzero"/></clipPath><clipPath id="2fd05041b4"><path d="M 148.375 112.390625 C 148.304688 112.863281 148.546875 113.328125 148.972656 113.539062 C 149.074219 113.589844 149.128906 113.699219 149.113281 113.808594 C 149.097656 113.921875 149.011719 114.011719 148.898438 114.027344 C 148.429688 114.109375 148.0625 114.480469 147.992188 114.953125 C 147.976562 115.066406 147.886719 115.152344 147.777344 115.171875 C 147.667969 115.191406 147.554688 115.136719 147.503906 115.035156 C 147.285156 114.613281 146.816406 114.378906 146.347656 114.460938 C 146.234375 114.480469 146.125 114.421875 146.074219 114.324219 C 146.019531 114.222656 146.039062 114.101562 146.117188 114.023438 L 146.117188 114.019531 C 146.453125 113.679688 146.53125 113.164062 146.308594 112.738281 C 146.257812 112.640625 146.277344 112.515625 146.355469 112.4375 C 146.433594 112.355469 146.554688 112.335938 146.65625 112.386719 C 147.082031 112.597656 147.597656 112.511719 147.933594 112.171875 C 148.011719 112.089844 148.132812 112.070312 148.234375 112.121094 C 148.335938 112.171875 148.390625 112.28125 148.375 112.390625 Z M 148.375 112.390625 " clip-rule="nonzero"/></clipPath><clipPath id="417075f13f"><path d="M 130 121 L 134 121 L 134 125 L 130 125 Z M 130 121 " clip-rule="nonzero"/></clipPath><clipPath id="234271b712"><path d="M 131.441406 121.160156 L 134.230469 122.546875 L 132.898438 125.226562 L 130.105469 123.835938 Z M 131.441406 121.160156 " clip-rule="nonzero"/></clipPath><clipPath id="dd6a9bc377"><path d="M 132.976562 122.132812 C 132.90625 122.605469 133.148438 123.066406 133.574219 123.28125 C 133.675781 123.332031 133.734375 123.441406 133.714844 123.550781 C 133.699219 123.664062 133.613281 123.75 133.503906 123.769531 L 133.5 123.769531 C 133.03125 123.847656 132.664062 124.222656 132.59375 124.695312 C 132.578125 124.808594 132.492188 124.894531 132.378906 124.914062 C 132.269531 124.933594 132.160156 124.878906 132.105469 124.777344 C 131.886719 124.355469 131.417969 124.121094 130.949219 124.199219 C 130.839844 124.21875 130.726562 124.164062 130.675781 124.066406 C 130.625 123.964844 130.640625 123.84375 130.71875 123.761719 L 130.722656 123.761719 C 131.054688 123.421875 131.132812 122.902344 130.914062 122.480469 C 130.859375 122.378906 130.878906 122.257812 130.957031 122.175781 C 131.039062 122.097656 131.160156 122.078125 131.257812 122.128906 C 131.6875 122.339844 132.203125 122.253906 132.535156 121.914062 L 132.535156 121.910156 C 132.613281 121.832031 132.738281 121.8125 132.835938 121.859375 C 132.9375 121.910156 132.996094 122.019531 132.976562 122.132812 Z M 132.976562 122.132812 " clip-rule="nonzero"/></clipPath><clipPath id="c80db853f1"><path d="M 131 94 L 135 94 L 135 98 L 131 98 Z M 131 94 " clip-rule="nonzero"/></clipPath><clipPath id="f9d00c9ece"><path d="M 130.523438 96.140625 L 132.207031 93.515625 L 134.726562 95.132812 L 133.042969 97.753906 Z M 130.523438 96.140625 " clip-rule="nonzero"/></clipPath><clipPath id="a25abeffca"><path d="M 131.65625 94.714844 L 131.660156 94.714844 C 132.121094 94.835938 132.605469 94.648438 132.863281 94.246094 C 132.925781 94.152344 133.039062 94.105469 133.148438 94.136719 C 133.257812 94.164062 133.335938 94.257812 133.34375 94.371094 C 133.371094 94.847656 133.703125 95.253906 134.164062 95.375 C 134.273438 95.402344 134.351562 95.5 134.359375 95.613281 C 134.363281 95.722656 134.296875 95.828125 134.195312 95.867188 C 133.75 96.042969 133.46875 96.480469 133.496094 96.957031 C 133.5 97.070312 133.433594 97.171875 133.332031 97.214844 C 133.226562 97.253906 133.105469 97.222656 133.035156 97.136719 C 132.730469 96.765625 132.226562 96.632812 131.78125 96.804688 L 131.78125 96.808594 C 131.675781 96.847656 131.554688 96.816406 131.484375 96.730469 C 131.414062 96.640625 131.40625 96.519531 131.46875 96.421875 C 131.722656 96.023438 131.695312 95.5 131.390625 95.132812 C 131.320312 95.042969 131.3125 94.921875 131.375 94.828125 C 131.433594 94.730469 131.550781 94.6875 131.65625 94.714844 Z M 131.65625 94.714844 " clip-rule="nonzero"/></clipPath><clipPath id="54317e631a"><path d="M 136 103 L 140 103 L 140 107 L 136 107 Z M 136 103 " clip-rule="nonzero"/></clipPath><clipPath id="164a845608"><path d="M 135.371094 105.5 L 137.054688 102.875 L 139.570312 104.492188 L 137.886719 107.113281 Z M 135.371094 105.5 " clip-rule="nonzero"/></clipPath><clipPath id="e7d4a15bd9"><path d="M 136.503906 104.074219 C 136.964844 104.195312 137.453125 104.007812 137.710938 103.605469 C 137.773438 103.511719 137.886719 103.464844 137.996094 103.496094 C 138.105469 103.523438 138.183594 103.617188 138.1875 103.730469 C 138.21875 104.207031 138.546875 104.613281 139.011719 104.734375 C 139.121094 104.761719 139.199219 104.859375 139.207031 104.972656 C 139.210938 105.082031 139.144531 105.1875 139.039062 105.226562 C 138.59375 105.402344 138.3125 105.839844 138.339844 106.316406 C 138.347656 106.429688 138.28125 106.53125 138.175781 106.574219 C 138.070312 106.613281 137.953125 106.582031 137.882812 106.496094 L 137.878906 106.496094 C 137.578125 106.125 137.070312 105.992188 136.628906 106.164062 L 136.625 106.164062 C 136.523438 106.207031 136.402344 106.175781 136.332031 106.089844 C 136.257812 106 136.253906 105.878906 136.3125 105.78125 C 136.570312 105.382812 136.539062 104.859375 136.238281 104.492188 C 136.167969 104.402344 136.160156 104.28125 136.21875 104.1875 C 136.28125 104.089844 136.394531 104.046875 136.503906 104.074219 Z M 136.503906 104.074219 " clip-rule="nonzero"/></clipPath><clipPath id="01d3b6cede"><path d="M 119 109 L 123 109 L 123 113 L 119 113 Z M 119 109 " clip-rule="nonzero"/></clipPath><clipPath id="96cfb5897e"><path d="M 118.503906 111.222656 L 120.1875 108.597656 L 122.703125 110.214844 L 121.019531 112.839844 Z M 118.503906 111.222656 " clip-rule="nonzero"/></clipPath><clipPath id="8a79020e63"><path d="M 119.636719 109.800781 C 120.097656 109.921875 120.585938 109.730469 120.84375 109.332031 C 120.902344 109.234375 121.019531 109.191406 121.128906 109.21875 C 121.238281 109.246094 121.316406 109.34375 121.320312 109.457031 C 121.351562 109.933594 121.679688 110.335938 122.140625 110.457031 L 122.144531 110.457031 C 122.253906 110.488281 122.332031 110.582031 122.335938 110.695312 C 122.34375 110.808594 122.277344 110.910156 122.171875 110.953125 C 121.726562 111.125 121.445312 111.5625 121.472656 112.039062 C 121.480469 112.152344 121.414062 112.257812 121.308594 112.296875 C 121.203125 112.339844 121.085938 112.308594 121.011719 112.21875 C 120.710938 111.851562 120.203125 111.71875 119.757812 111.890625 C 119.652344 111.929688 119.535156 111.898438 119.464844 111.8125 C 119.390625 111.726562 119.386719 111.601562 119.445312 111.507812 C 119.703125 111.105469 119.671875 110.585938 119.371094 110.214844 C 119.296875 110.128906 119.292969 110.003906 119.351562 109.910156 C 119.414062 109.816406 119.527344 109.769531 119.636719 109.800781 Z M 119.636719 109.800781 " clip-rule="nonzero"/></clipPath><clipPath id="11837899de"><path d="M 140 119 L 144 119 L 144 123 L 140 123 Z M 140 119 " clip-rule="nonzero"/></clipPath><clipPath id="710fbd6656"><path d="M 140.089844 121.527344 L 141.773438 118.90625 L 144.289062 120.523438 L 142.605469 123.144531 Z M 140.089844 121.527344 " clip-rule="nonzero"/></clipPath><clipPath id="d620651751"><path d="M 141.222656 120.105469 C 141.683594 120.226562 142.171875 120.039062 142.429688 119.636719 C 142.488281 119.542969 142.605469 119.496094 142.714844 119.523438 C 142.824219 119.554688 142.902344 119.648438 142.90625 119.761719 C 142.933594 120.238281 143.265625 120.644531 143.726562 120.765625 L 143.730469 120.765625 C 143.839844 120.792969 143.917969 120.890625 143.921875 121 C 143.929688 121.113281 143.863281 121.21875 143.757812 121.257812 C 143.3125 121.429688 143.03125 121.871094 143.058594 122.347656 C 143.066406 122.457031 143 122.5625 142.894531 122.605469 C 142.789062 122.644531 142.671875 122.613281 142.597656 122.527344 L 142.597656 122.523438 C 142.296875 122.15625 141.789062 122.023438 141.34375 122.195312 C 141.238281 122.238281 141.121094 122.207031 141.050781 122.117188 C 140.976562 122.03125 140.96875 121.90625 141.03125 121.8125 C 141.289062 121.414062 141.257812 120.890625 140.957031 120.523438 L 140.957031 120.519531 C 140.882812 120.433594 140.875 120.3125 140.9375 120.214844 C 141 120.121094 141.113281 120.078125 141.222656 120.105469 Z M 141.222656 120.105469 " clip-rule="nonzero"/></clipPath><clipPath id="d6de91f2ff"><path d="M 143 95 L 147 95 L 147 99 L 143 99 Z M 143 95 " clip-rule="nonzero"/></clipPath><clipPath id="699960f13f"><path d="M 142.664062 96.585938 L 145.234375 94.828125 L 146.925781 97.296875 L 144.351562 99.054688 Z M 142.664062 96.585938 " clip-rule="nonzero"/></clipPath><clipPath id="6a64871b08"><path d="M 144.261719 95.71875 C 144.640625 96.011719 145.160156 96.023438 145.554688 95.753906 C 145.648438 95.691406 145.769531 95.695312 145.859375 95.765625 C 145.949219 95.832031 145.984375 95.949219 145.945312 96.058594 C 145.785156 96.507812 145.933594 97.007812 146.3125 97.300781 C 146.402344 97.371094 146.4375 97.488281 146.398438 97.59375 C 146.363281 97.699219 146.261719 97.769531 146.148438 97.765625 C 145.671875 97.753906 145.238281 98.046875 145.082031 98.496094 C 145.042969 98.601562 144.941406 98.671875 144.828125 98.671875 C 144.714844 98.667969 144.617188 98.59375 144.585938 98.484375 L 144.585938 98.480469 C 144.449219 98.023438 144.035156 97.707031 143.558594 97.691406 C 143.445312 97.6875 143.347656 97.613281 143.316406 97.503906 C 143.285156 97.398438 143.328125 97.28125 143.421875 97.21875 C 143.8125 96.949219 143.988281 96.457031 143.851562 96 L 143.851562 95.996094 C 143.820312 95.890625 143.863281 95.773438 143.957031 95.710938 C 144.046875 95.644531 144.171875 95.648438 144.261719 95.71875 Z M 144.261719 95.71875 " clip-rule="nonzero"/></clipPath><clipPath id="b9f174cae1"><path d="M 149.65625 103.589844 L 151.875 103.589844 L 151.875 105.808594 L 149.65625 105.808594 Z M 149.65625 103.589844 " clip-rule="nonzero"/></clipPath><clipPath id="3dd1a9289a"><path d="M 150.765625 103.589844 C 150.152344 103.589844 149.65625 104.085938 149.65625 104.699219 C 149.65625 105.3125 150.152344 105.808594 150.765625 105.808594 C 151.378906 105.808594 151.875 105.3125 151.875 104.699219 C 151.875 104.085938 151.378906 103.589844 150.765625 103.589844 Z M 150.765625 103.589844 " clip-rule="nonzero"/></clipPath><clipPath id="dfca436b12"><path d="M 121.511719 100.511719 L 123.730469 100.511719 L 123.730469 102.730469 L 121.511719 102.730469 Z M 121.511719 100.511719 " clip-rule="nonzero"/></clipPath><clipPath id="3de14294af"><path d="M 122.621094 100.511719 C 122.007812 100.511719 121.511719 101.007812 121.511719 101.621094 C 121.511719 102.234375 122.007812 102.730469 122.621094 102.730469 C 123.234375 102.730469 123.730469 102.234375 123.730469 101.621094 C 123.730469 101.007812 123.234375 100.511719 122.621094 100.511719 Z M 122.621094 100.511719 " clip-rule="nonzero"/></clipPath><clipPath id="a91e57688f"><path d="M 122.160156 113.382812 L 124.378906 113.382812 L 124.378906 115.601562 L 122.160156 115.601562 Z M 122.160156 113.382812 " clip-rule="nonzero"/></clipPath><clipPath id="11626f5098"><path d="M 123.269531 113.382812 C 122.65625 113.382812 122.160156 113.878906 122.160156 114.492188 C 122.160156 115.105469 122.65625 115.601562 123.269531 115.601562 C 123.882812 115.601562 124.378906 115.105469 124.378906 114.492188 C 124.378906 113.878906 123.882812 113.382812 123.269531 113.382812 Z M 123.269531 113.382812 " clip-rule="nonzero"/></clipPath><clipPath id="f4d8db86d4"><path d="M 137.097656 116.574219 L 139.316406 116.574219 L 139.316406 118.792969 L 137.097656 118.792969 Z M 137.097656 116.574219 " clip-rule="nonzero"/></clipPath><clipPath id="bd8f11dae0"><path d="M 138.207031 116.574219 C 137.59375 116.574219 137.097656 117.070312 137.097656 117.683594 C 137.097656 118.296875 137.59375 118.792969 138.207031 118.792969 C 138.820312 118.792969 139.316406 118.296875 139.316406 117.683594 C 139.316406 117.070312 138.820312 116.574219 138.207031 116.574219 Z M 138.207031 116.574219 " clip-rule="nonzero"/></clipPath><clipPath id="99d24d0d0c"><path d="M 135.988281 98.59375 L 138.207031 98.59375 L 138.207031 100.8125 L 135.988281 100.8125 Z M 135.988281 98.59375 " clip-rule="nonzero"/></clipPath><clipPath id="067aa1b5dd"><path d="M 137.097656 98.59375 C 136.484375 98.59375 135.988281 99.089844 135.988281 99.703125 C 135.988281 100.316406 136.484375 100.8125 137.097656 100.8125 C 137.710938 100.8125 138.207031 100.316406 138.207031 99.703125 C 138.207031 99.089844 137.710938 98.59375 137.097656 98.59375 Z M 137.097656 98.59375 " clip-rule="nonzero"/></clipPath><clipPath id="4aa0f4352d"><path d="M 141.898438 107.695312 L 144.117188 107.695312 L 144.117188 109.914062 L 141.898438 109.914062 Z M 141.898438 107.695312 " clip-rule="nonzero"/></clipPath><clipPath id="20f5def7fb"><path d="M 143.007812 107.695312 C 142.394531 107.695312 141.898438 108.191406 141.898438 108.804688 C 141.898438 109.417969 142.394531 109.914062 143.007812 109.914062 C 143.621094 109.914062 144.117188 109.417969 144.117188 108.804688 C 144.117188 108.191406 143.621094 107.695312 143.007812 107.695312 Z M 143.007812 107.695312 " clip-rule="nonzero"/></clipPath><clipPath id="fc0320ba2e"><path d="M 144.933594 121.601562 L 147.152344 121.601562 L 147.152344 123.820312 L 144.933594 123.820312 Z M 144.933594 121.601562 " clip-rule="nonzero"/></clipPath><clipPath id="edae2dad90"><path d="M 146.042969 121.601562 C 145.429688 121.601562 144.933594 122.097656 144.933594 122.710938 C 144.933594 123.324219 145.429688 123.820312 146.042969 123.820312 C 146.65625 123.820312 147.152344 123.324219 147.152344 122.710938 C 147.152344 122.097656 146.65625 121.601562 146.042969 121.601562 Z M 146.042969 121.601562 " clip-rule="nonzero"/></clipPath><clipPath id="2580180f3a"><path d="M 127.042969 120.90625 L 129.261719 120.90625 L 129.261719 123.125 L 127.042969 123.125 Z M 127.042969 120.90625 " clip-rule="nonzero"/></clipPath><clipPath id="c3302803aa"><path d="M 128.152344 120.90625 C 127.539062 120.90625 127.042969 121.402344 127.042969 122.015625 C 127.042969 122.628906 127.539062 123.125 128.152344 123.125 C 128.765625 123.125 129.261719 122.628906 129.261719 122.015625 C 129.261719 121.402344 128.765625 120.90625 128.152344 120.90625 Z M 128.152344 120.90625 " clip-rule="nonzero"/></clipPath><clipPath id="559cf6e211"><path d="M 150.921875 113.972656 L 153.140625 113.972656 L 153.140625 116.191406 L 150.921875 116.191406 Z M 150.921875 113.972656 " clip-rule="nonzero"/></clipPath><clipPath id="a2ac0bcd19"><path d="M 152.03125 113.972656 C 151.417969 113.972656 150.921875 114.46875 150.921875 115.082031 C 150.921875 115.695312 151.417969 116.191406 152.03125 116.191406 C 152.644531 116.191406 153.140625 115.695312 153.140625 115.082031 C 153.140625 114.46875 152.644531 113.972656 152.03125 113.972656 Z M 152.03125 113.972656 " clip-rule="nonzero"/></clipPath><clipPath id="24df0cca72"><path d="M 126.285156 104.953125 L 128.503906 104.953125 L 128.503906 107.171875 L 126.285156 107.171875 Z M 126.285156 104.953125 " clip-rule="nonzero"/></clipPath><clipPath id="b66d4bc7bd"><path d="M 127.394531 104.953125 C 126.785156 104.953125 126.285156 105.449219 126.285156 106.0625 C 126.285156 106.675781 126.785156 107.171875 127.394531 107.171875 C 128.007812 107.171875 128.503906 106.675781 128.503906 106.0625 C 128.503906 105.449219 128.007812 104.953125 127.394531 104.953125 Z M 127.394531 104.953125 " clip-rule="nonzero"/></clipPath></defs><path stroke-linecap="butt" transform="matrix(0.766073, 0, 0, 0.766073, 1.759877, -3.33034)" fill="none" stroke-linejoin="miter" d="M 40.667407 118.999656 L 52.160689 118.999656 L 52.160689 14.861553 C 67.947379 15.004326 77.477522 15.917058 87.588958 25.299329 L 87.588958 13.658174 L 5.203445 13.658174 L 5.203445 25.299329 C 15.059928 15.917058 24.732845 15.004326 40.667407 14.861553 Z M 136.488944 60.911164 C 149.435457 59.274366 160.459625 51.814441 160.459625 37.195436 C 160.459625 20.205368 142.419151 13.658174 120.518688 13.658174 L 94.294222 13.658174 L 94.294222 118.999656 L 106.07815 118.999656 L 106.07815 35.410765 C 107.424302 41.667311 109.208973 46.434932 111.901276 50.758935 C 116.373152 57.780341 122.777571 61.492457 130.048831 61.492457 C 163.733222 61.492457 130.048831 118.999656 184.282434 118.999656 L 184.282434 117.801377 C 174.31887 117.801377 168.791489 106.486563 163.151929 93.540049 C 157.186029 79.532931 151.984987 64.475407 136.488944 60.911164 Z M 148.675697 37.195436 C 148.675697 52.834253 140.63448 59.855658 131.104336 60.436951 L 130.048831 60.436951 C 123.210992 60.436951 117.102318 56.107849 112.915989 50.034869 C 108.770453 43.451982 106.07815 34.977345 106.07815 24.101049 L 106.07815 14.861553 L 120.518688 14.861553 C 134.994919 14.861553 148.675697 20.205368 148.675697 37.195436 Z M 202.480979 48.831491 C 206.810081 66.402852 224.666989 65.530912 233.325193 75.351702 L 233.325193 63.567774 C 212.883061 63.567774 202.480979 59.417139 202.480979 38.975008 L 202.480979 14.861553 L 214.698327 14.861553 C 232.850981 14.861553 240.601552 15.585619 251.182101 25.737848 L 251.182101 13.806047 L 190.982599 13.806047 L 190.982599 118.999656 L 250.310162 118.999656 L 253.731632 96.956419 C 248.347024 111.97825 240.601552 117.801377 227.649939 117.801377 L 202.480979 117.801377 Z M 332.83335 118.999656 L 345.346443 118.999656 L 300.785758 13.806047 L 299.765946 13.806047 C 288.420537 33.044801 275.035504 60.146305 267.142159 81.460376 C 263.537124 90.990519 261.466906 99.322383 260.73774 105.90527 C 259.972881 112.600336 261.609679 117.072211 265.648135 118.856882 C 266.667947 119.728822 267.142159 119.728822 268.014099 119.907289 C 274.744858 120.197935 277.253596 114.670554 280.088673 107.215728 C 284.856294 96.339433 290.674322 81.026956 315.991155 78.625299 Z M 315.552636 77.569793 C 289.766689 80.114224 283.800789 95.75814 278.890394 106.925082 C 276.52443 113.798615 274.122773 118.999656 268.156872 118.561137 C 267.432806 118.092023 266.994287 118.092023 266.086654 117.801377 C 262.522411 116.597999 261.466906 111.97825 261.757552 105.90527 C 262.522411 99.465157 264.592629 91.281166 268.156872 81.751022 C 274.413419 64.475407 284.565648 44.211742 293.657272 26.609787 Z M 387.500373 118.999656 L 398.993654 118.999656 L 398.993654 14.861553 C 414.780344 15.004326 424.310487 15.917058 434.427022 25.299329 L 434.427022 13.658174 L 352.03641 13.658174 L 352.03641 25.299329 C 361.892893 15.917058 371.570909 15.004326 387.500373 14.861553 Z M 387.500373 118.999656 " stroke="#421a7b" stroke-width="8.380969" stroke-opacity="1" stroke-miterlimit="4"/><g fill="#d8a3d7" fill-opacity="1"><g transform="translate(1.759877, 87.832295)"><g><path d="M 31.15625 0 L 39.953125 0 L 39.953125 -79.78125 C 52.046875 -79.671875 59.359375 -78.984375 67.109375 -71.796875 L 67.109375 -80.703125 L 4 -80.703125 L 4 -71.796875 C 11.53125 -78.984375 18.953125 -79.671875 31.15625 -79.78125 Z M 31.15625 0 "/></g></g></g><g fill="#d8a3d7" fill-opacity="1"><g transform="translate(70.011144, 87.832295)"><g><path d="M 36.296875 -44.515625 C 46.234375 -45.765625 54.671875 -51.484375 54.671875 -62.65625 C 54.671875 -75.671875 40.859375 -80.703125 24.078125 -80.703125 L 4 -80.703125 L 4 0 L 13.015625 0 L 13.015625 -64.03125 C 14.046875 -59.234375 15.40625 -55.59375 17.46875 -52.28125 C 20.890625 -46.90625 25.796875 -44.0625 31.390625 -44.0625 C 57.1875 -44.0625 31.390625 0 72.9375 0 L 72.9375 -0.90625 C 65.28125 -0.90625 61.0625 -9.59375 56.734375 -19.515625 C 52.15625 -30.25 48.171875 -41.78125 36.296875 -44.515625 Z M 45.65625 -62.65625 C 45.65625 -50.671875 39.5 -45.3125 32.1875 -44.859375 L 31.390625 -44.859375 C 26.140625 -44.859375 21.453125 -48.171875 18.265625 -52.84375 C 15.0625 -57.875 13.015625 -64.375 13.015625 -72.703125 L 13.015625 -79.78125 L 24.078125 -79.78125 C 35.15625 -79.78125 45.65625 -75.671875 45.65625 -62.65625 Z M 45.65625 -62.65625 "/></g></g></g><g fill="#d8a3d7" fill-opacity="1"><g transform="translate(144.083187, 87.832295)"><g><path d="M 12.78125 -53.765625 C 16.09375 -40.296875 29.796875 -40.96875 36.40625 -33.4375 L 36.40625 -42.453125 C 20.78125 -42.453125 12.78125 -45.65625 12.78125 -61.296875 L 12.78125 -79.78125 L 22.140625 -79.78125 C 36.0625 -79.78125 42 -79.21875 50.109375 -71.453125 L 50.109375 -80.578125 L 4 -80.578125 L 4 0 L 49.421875 0 L 52.046875 -16.890625 C 47.9375 -5.359375 42 -0.90625 32.078125 -0.90625 L 12.78125 -0.90625 Z M 12.78125 -53.765625 "/></g></g></g><g fill="#d8a3d7" fill-opacity="1"><g transform="translate(197.268899, 87.832295)"><g><path d="M 59.46875 0 L 69.0625 0 L 34.921875 -80.578125 L 34.125 -80.578125 C 25.453125 -65.859375 15.1875 -45.078125 9.125 -28.765625 C 6.390625 -21.453125 4.796875 -15.0625 4.21875 -10.046875 C 3.65625 -4.90625 4.90625 -1.484375 7.984375 -0.109375 C 8.78125 0.578125 9.125 0.578125 9.8125 0.6875 C 14.953125 0.90625 16.890625 -3.3125 19.0625 -9.015625 C 22.71875 -17.34375 27.171875 -29.109375 46.5625 -30.9375 Z M 46.234375 -31.734375 C 26.484375 -29.796875 21.921875 -17.8125 18.140625 -9.25 C 16.328125 -4 14.5 0 9.9375 -0.34375 C 9.359375 -0.6875 9.015625 -0.6875 8.328125 -0.90625 C 5.59375 -1.828125 4.796875 -5.359375 5.015625 -10.046875 C 5.59375 -14.953125 7.1875 -21.234375 9.9375 -28.53125 C 14.71875 -41.78125 22.484375 -57.296875 29.453125 -70.765625 Z M 46.234375 -31.734375 "/></g></g></g><g fill="#d8a3d7" fill-opacity="1"><g transform="translate(267.460415, 87.832295)"><g><path d="M 31.15625 0 L 39.953125 0 L 39.953125 -79.78125 C 52.046875 -79.671875 59.359375 -78.984375 67.109375 -71.796875 L 67.109375 -80.703125 L 4 -80.703125 L 4 -71.796875 C 11.53125 -78.984375 18.953125 -79.671875 31.15625 -79.78125 Z M 31.15625 0 "/></g></g></g><g fill="#421a7b" fill-opacity="1"><g transform="translate(71.775546, 129.791915)"><g><path d="M 23.09375 0 C 21.609375 -0.734375 20.703125 -2.890625 19.296875 -6.09375 L 7.5 -29.765625 C 4.859375 -35.125 0.578125 -35.78125 0.578125 -35.78125 L 0 -37.015625 L 20.859375 -37.015625 L 21.4375 -35.78125 C 21.4375 -35.78125 17.734375 -35.203125 20.703125 -29.359375 L 29.03125 -12.53125 C 37.34375 -30.015625 37.265625 -29.765625 37.265625 -29.765625 C 39.75 -35.125 36.203125 -35.78125 36.203125 -35.78125 L 36.6875 -37.015625 L 49.3125 -37.015625 L 48.734375 -35.78125 C 48.734375 -35.78125 44.53125 -35.203125 41.71875 -29.359375 L 26.96875 1.65625 C 24.484375 7.75 21.6875 11.953125 14.515625 11.953125 C 5.6875 11.953125 6.1875 2.140625 13.1875 1.984375 C 11.953125 4.046875 13.515625 6.921875 16.484375 6.921875 C 19.125 6.921875 20.703125 5.109375 22.09375 2.0625 Z M 23.09375 0 "/></g></g></g><g fill="#421a7b" fill-opacity="1"><g transform="translate(122.318693, 129.791915)"><g/></g></g><g fill="#421a7b" fill-opacity="1"><g transform="translate(155.382005, 129.791915)"><g><path d="M 25.640625 -12.53125 L 25.640625 -27.875 C 25.640625 -33.71875 21.6875 -34.296875 21.6875 -34.296875 L 21.6875 -35.53125 L 38.59375 -37.4375 C 38.59375 -37.4375 38.5 -32.40625 38.5 -27.125 L 38.5 -8 C 38.5 -2.140625 41.96875 -1.5625 41.96875 -1.5625 L 41.96875 -0.328125 C 32.90625 -1.8125 25.390625 0 21.03125 0 C 8.734375 0 3.953125 -5.4375 3.953125 -13.859375 L 3.953125 -27.875 C 3.953125 -33.71875 0 -34.296875 0 -34.296875 L 0 -35.53125 L 16.90625 -37.4375 C 16.90625 -37.4375 16.90625 -32.40625 16.90625 -27.125 L 16.90625 -12.03125 C 16.90625 -8.25 16.90625 -2.5625 21.359375 -2.5625 C 25.3125 -2.5625 25.5625 -6.59375 25.640625 -12.53125 Z M 25.640625 -12.53125 "/></g></g></g><g fill="#421a7b" fill-opacity="1"><g transform="translate(199.164077, 129.791915)"><g><path d="M 16.984375 -34.140625 C 24.578125 -39.578125 34.796875 -38.015625 36.6875 -30.84375 L 27.625 -28.03125 C 26.0625 -32.734375 22.921875 -35.046875 16.984375 -31.90625 C 16.984375 -30.5 16.984375 -7.171875 16.984375 -7.171875 C 16.984375 -1.734375 20.9375 -1.15625 20.9375 -1.15625 L 20.9375 0 L 0 0 L 0 -1.15625 C 0 -1.15625 4.046875 -1.484375 4.046875 -7.34375 L 4.046875 -27.875 C 4.046875 -33.71875 0.078125 -34.296875 0.078125 -34.296875 L 0.078125 -35.53125 L 16.984375 -37.4375 C 16.984375 -37.4375 16.984375 -36.109375 16.984375 -34.140625 Z M 16.984375 -34.140625 "/></g></g></g><g fill="#421a7b" fill-opacity="1"><g transform="translate(237.669222, 129.791915)"><g><path d="M 16.328125 -36.9375 C 23.171875 -36.9375 27.78125 -34.71875 30.671875 -31.65625 C 28.609375 -28.609375 26.0625 -26.296875 21.515625 -27.125 C 23.578125 -28.78125 21.6875 -35.375 16.328125 -35.375 C 11.875 -35.375 9.734375 -32.40625 9.734375 -29.6875 C 9.734375 -21.515625 31.984375 -24.328125 31.984375 -10.46875 C 31.984375 -3.296875 27.125 0.078125 14.59375 0.078125 C 10.640625 0.078125 2.890625 -1.3125 0 -4.859375 C 2.3125 -7.671875 3.046875 -11.953125 6.671875 -13.859375 C 4.046875 -8.90625 6.84375 -2.796875 13.1875 -2.796875 C 16.578125 -2.796875 19.703125 -3.875 19.703125 -8.40625 C 19.703125 -13.4375 15.671875 -15.09375 10.96875 -17.15625 C 9.40625 -17.8125 1.65625 -19.875 1.65625 -27.78125 C 1.65625 -32.40625 6.515625 -36.9375 16.328125 -36.9375 Z M 16.328125 -36.9375 "/></g></g></g><g fill="#421a7b" fill-opacity="1"><g transform="translate(271.557046, 129.791915)"><g><path d="M 26.46875 -18.21875 C 21.265625 -18.21875 13.109375 -18.46875 13.109375 -18.46875 C 13.109375 -7.09375 16.578125 -2.21875 21.84375 -2.3125 C 29.03125 -2.3125 30.84375 -7.09375 31.75 -9.15625 L 33.96875 -5.28125 C 32.984375 -3.796875 30.84375 0 21.765625 0 C 8.984375 0 0 -5.4375 0 -18.21875 C 0 -28.9375 7.671875 -37.1875 19.875 -37.1875 C 32.90625 -37.1875 37.4375 -26.390625 35.953125 -20.609375 C 34.140625 -18.71875 30.171875 -18.21875 26.46875 -18.21875 Z M 19.78125 -34.71875 C 14.84375 -34.71875 13.1875 -29.109375 13.1875 -21.359375 L 22.515625 -21.359375 C 27.546875 -21.359375 26.71875 -34.71875 19.78125 -34.71875 Z M 19.78125 -34.71875 "/></g></g></g><g fill="#421a7b" fill-opacity="1"><g transform="translate(309.64993, 129.791915)"><g><path d="M 16.984375 -48.40625 L 0 -46.5 L 0 -45.34375 C 0 -45.34375 3.953125 -44.765625 3.953125 -38.921875 L 3.953125 -7.25 C 3.953125 -1.484375 0 -1.15625 0 -1.15625 L 0 0 L 20.859375 0 L 20.859375 -1.15625 C 20.859375 -1.15625 16.90625 -1.734375 16.90625 -7.171875 L 16.90625 -38.09375 C 16.90625 -43.375 16.984375 -48.40625 16.984375 -48.40625 Z M 16.984375 -48.40625 "/></g></g></g><g fill="#421a7b" fill-opacity="1"><g transform="translate(333.066342, 129.791915)"><g><path d="M 3.953125 -32.65625 C 3.953125 -32.90625 3.953125 -33.0625 3.953125 -33.3125 C 3.796875 -47.828125 21.359375 -46.75 23.09375 -46.671875 C 30.84375 -46.34375 33.46875 -43.953125 36.9375 -39.828125 L 26.625 -36.78125 C 28.359375 -39.328125 26.625 -43.625 22.34375 -43.625 C 18.96875 -43.625 16.734375 -41.390625 16.90625 -33.71875 C 16.90625 -33.390625 16.90625 -33.0625 16.90625 -32.65625 L 25.484375 -32.65625 L 25.484375 -30.171875 L 16.984375 -30.171875 C 17.15625 -20.125 16.90625 -7.171875 16.90625 -7.171875 C 16.90625 -1.734375 20.859375 -1.15625 20.859375 -1.15625 L 20.859375 0 L 0 0 L 0 -1.15625 C 0 -1.15625 3.953125 -1.734375 3.953125 -7.578125 C 3.953125 -7.578125 4.125 -20.703125 4.046875 -30.171875 L -0.828125 -30.171875 L -0.828125 -32.65625 Z M 3.953125 -32.65625 "/></g></g></g><g clip-path="url(#593bb5090c)"><g clip-path="url(#a1309a9b8b)"><path fill="#ffc65c" d="M 115.214844 88.148438 L 157.789062 88.148438 L 157.789062 130.726562 L 115.214844 130.726562 Z M 115.214844 88.148438 " fill-opacity="1" fill-rule="nonzero"/></g></g><g clip-path="url(#5d61cd7911)"><g clip-path="url(#19ef44af35)"><path fill="#fd7ab4" d="M 117.730469 90.667969 L 155.269531 90.667969 L 155.269531 128.207031 L 117.730469 128.207031 Z M 117.730469 90.667969 " fill-opacity="1" fill-rule="nonzero"/></g></g><path stroke-linecap="round" transform="matrix(-0.343032, -0.459082, 0.459082, -0.343032, 123.915171, 109.509862)" fill="none" stroke-linejoin="miter" d="M 1.000973 1.000788 L 6.318956 1.000826 " stroke="#ffc65c" stroke-width="2" stroke-opacity="1" stroke-miterlimit="4"/><path stroke-linecap="round" transform="matrix(0.309014, -0.482636, 0.482636, 0.309014, 134.885928, 124.580268)" fill="none" stroke-linejoin="miter" d="M 0.998891 0.996986 L 6.317643 0.998976 " stroke="#ffc65c" stroke-width="2" stroke-opacity="1" stroke-miterlimit="4"/><path stroke-linecap="round" transform="matrix(-0.172908, -0.546379, 0.546379, -0.172908, 150.3712, 112.007662)" fill="none" stroke-linejoin="miter" d="M 0.998106 1.002005 L 6.318351 0.998415 " stroke="#ffc65c" stroke-width="2" stroke-opacity="1" stroke-miterlimit="4"/><path stroke-linecap="round" transform="matrix(-0.536045, 0.202689, -0.202689, -0.536045, 141.005592, 95.300248)" fill="none" stroke-linejoin="miter" d="M 1.003159 0.997726 L 6.322724 0.997895 " stroke="#ffc65c" stroke-width="2" stroke-opacity="1" stroke-miterlimit="4"/><path stroke-linecap="round" transform="matrix(-0.536045, 0.202689, -0.202689, -0.536045, 138.661005, 110.63106)" fill="none" stroke-linejoin="miter" d="M 1.000136 1.001597 L 6.3197 1.001766 " stroke="#feefc4" stroke-width="2" stroke-opacity="1" stroke-miterlimit="4"/><path stroke-linecap="round" transform="matrix(-0.0328163, 0.572145, -0.572145, -0.0328163, 127.853844, 96.317363)" fill="none" stroke-linejoin="miter" d="M 0.997757 0.998176 L 6.32321 0.999958 " stroke="#feefc4" stroke-width="2" stroke-opacity="1" stroke-miterlimit="4"/><path stroke-linecap="round" transform="matrix(0.354035, 0.450651, -0.450651, 0.354035, 147.033921, 117.330442)" fill="none" stroke-linejoin="miter" d="M 1.002394 1.001446 L 6.317664 0.999179 " stroke="#feefc4" stroke-width="2" stroke-opacity="1" stroke-miterlimit="4"/><path stroke-linecap="round" transform="matrix(-0.133613, 0.557292, -0.557292, -0.133613, 133.252056, 115.778566)" fill="none" stroke-linejoin="miter" d="M 1.000944 0.997352 L 6.321072 0.997529 " stroke="#ffc65c" stroke-width="2" stroke-opacity="1" stroke-miterlimit="4"/><path stroke-linecap="round" transform="matrix(-0.133613, 0.557292, -0.557292, -0.133613, 149.138315, 98.566813)" fill="none" stroke-linejoin="miter" d="M 1.00214 0.996241 L 6.322268 0.996418 " stroke="#feefc4" stroke-width="2" stroke-opacity="1" stroke-miterlimit="4"/><path stroke-linecap="round" transform="matrix(-0.309629, 0.482242, -0.482242, -0.309629, 133.972963, 103.042803)" fill="none" stroke-linejoin="miter" d="M 1.000484 1.002603 L 6.319234 0.997818 " stroke="#ffc65c" stroke-width="2" stroke-opacity="1" stroke-miterlimit="4"/><path stroke-linecap="round" transform="matrix(0.356826, 0.448445, -0.448445, 0.356826, 141.731611, 101.757968)" fill="none" stroke-linejoin="miter" d="M 0.999679 0.998334 L 6.321169 0.999246 " stroke="#ffc65c" stroke-width="2" stroke-opacity="1" stroke-miterlimit="4"/><path stroke-linecap="round" transform="matrix(-0.292219, 0.492987, -0.492987, -0.292219, 143.861964, 112.441884)" fill="none" stroke-linejoin="miter" d="M 1.001605 0.996277 L 6.319286 0.997823 " stroke="#ffc65c" stroke-width="2" stroke-opacity="1" stroke-miterlimit="4"/><g clip-path="url(#5ab138dbbc)"><g clip-path="url(#96daa6d8c6)"><g clip-path="url(#b46bac91e8)"><path fill="#b3d7de" d="M 126.855469 111.800781 L 130.3125 109.433594 L 132.566406 112.722656 L 129.109375 115.09375 Z M 126.855469 111.800781 " fill-opacity="1" fill-rule="nonzero"/></g></g></g><g clip-path="url(#f9f74ce78f)"><g clip-path="url(#33d6d50d03)"><g clip-path="url(#2fd05041b4)"><path fill="#421a7b" d="M 146.621094 110.664062 L 150.371094 112.535156 L 148.59375 116.105469 L 144.84375 114.238281 Z M 146.621094 110.664062 " fill-opacity="1" fill-rule="nonzero"/></g></g></g><g clip-path="url(#417075f13f)"><g clip-path="url(#234271b712)"><g clip-path="url(#dd6a9bc377)"><path fill="#421a7b" d="M 131.222656 120.40625 L 134.976562 122.277344 L 133.195312 125.847656 L 129.445312 123.976562 Z M 131.222656 120.40625 " fill-opacity="1" fill-rule="nonzero"/></g></g></g><g clip-path="url(#c80db853f1)"><g clip-path="url(#f9d00c9ece)"><g clip-path="url(#a25abeffca)"><path fill="#421a7b" d="M 129.753906 96.273438 L 132.015625 92.746094 L 135.375 94.902344 L 133.109375 98.429688 Z M 129.753906 96.273438 " fill-opacity="1" fill-rule="nonzero"/></g></g></g><g clip-path="url(#54317e631a)"><g clip-path="url(#164a845608)"><g clip-path="url(#e7d4a15bd9)"><path fill="#4fa0a9" d="M 134.597656 105.632812 L 136.863281 102.105469 L 140.222656 104.257812 L 137.957031 107.789062 Z M 134.597656 105.632812 " fill-opacity="1" fill-rule="nonzero"/></g></g></g><g clip-path="url(#01d3b6cede)"><g clip-path="url(#96cfb5897e)"><g clip-path="url(#8a79020e63)"><path fill="#4fa0a9" d="M 117.730469 111.355469 L 119.996094 107.828125 L 123.351562 109.984375 L 121.089844 113.511719 Z M 117.730469 111.355469 " fill-opacity="1" fill-rule="nonzero"/></g></g></g><g clip-path="url(#11837899de)"><g clip-path="url(#710fbd6656)"><g clip-path="url(#d620651751)"><path fill="#b3d7de" d="M 139.316406 121.664062 L 141.582031 118.136719 L 144.9375 120.289062 L 142.675781 123.816406 Z M 139.316406 121.664062 " fill-opacity="1" fill-rule="nonzero"/></g></g></g><g clip-path="url(#d6de91f2ff)"><g clip-path="url(#699960f13f)"><g clip-path="url(#6a64871b08)"><path fill="#b3d7de" d="M 141.898438 96.410156 L 145.359375 94.042969 L 147.613281 97.335938 L 144.152344 99.703125 Z M 141.898438 96.410156 " fill-opacity="1" fill-rule="nonzero"/></g></g></g><g clip-path="url(#b9f174cae1)"><g clip-path="url(#3dd1a9289a)"><path fill="#ffffff" d="M 149.65625 103.589844 L 151.875 103.589844 L 151.875 105.808594 L 149.65625 105.808594 Z M 149.65625 103.589844 " fill-opacity="1" fill-rule="nonzero"/></g></g><g clip-path="url(#dfca436b12)"><g clip-path="url(#3de14294af)"><path fill="#ffb1bd" d="M 121.511719 100.511719 L 123.730469 100.511719 L 123.730469 102.730469 L 121.511719 102.730469 Z M 121.511719 100.511719 " fill-opacity="1" fill-rule="nonzero"/></g></g><g clip-path="url(#a91e57688f)"><g clip-path="url(#11626f5098)"><path fill="#d8a3d7" d="M 122.160156 113.382812 L 124.378906 113.382812 L 124.378906 115.601562 L 122.160156 115.601562 Z M 122.160156 113.382812 " fill-opacity="1" fill-rule="nonzero"/></g></g><g clip-path="url(#f4d8db86d4)"><g clip-path="url(#bd8f11dae0)"><path fill="#ffffff" d="M 137.097656 116.574219 L 139.316406 116.574219 L 139.316406 118.792969 L 137.097656 118.792969 Z M 137.097656 116.574219 " fill-opacity="1" fill-rule="nonzero"/></g></g><g clip-path="url(#99d24d0d0c)"><g clip-path="url(#067aa1b5dd)"><path fill="#d8a3d7" d="M 135.988281 98.59375 L 138.207031 98.59375 L 138.207031 100.8125 L 135.988281 100.8125 Z M 135.988281 98.59375 " fill-opacity="1" fill-rule="nonzero"/></g></g><g clip-path="url(#4aa0f4352d)"><g clip-path="url(#20f5def7fb)"><path fill="#d8a3d7" d="M 141.898438 107.695312 L 144.117188 107.695312 L 144.117188 109.914062 L 141.898438 109.914062 Z M 141.898438 107.695312 " fill-opacity="1" fill-rule="nonzero"/></g></g><g clip-path="url(#fc0320ba2e)"><g clip-path="url(#edae2dad90)"><path fill="#ffb1bd" d="M 144.933594 121.601562 L 147.152344 121.601562 L 147.152344 123.820312 L 144.933594 123.820312 Z M 144.933594 121.601562 " fill-opacity="1" fill-rule="nonzero"/></g></g><g clip-path="url(#2580180f3a)"><g clip-path="url(#c3302803aa)"><path fill="#ffffff" d="M 127.042969 120.90625 L 129.261719 120.90625 L 129.261719 123.125 L 127.042969 123.125 Z M 127.042969 120.90625 " fill-opacity="1" fill-rule="nonzero"/></g></g><g clip-path="url(#559cf6e211)"><g clip-path="url(#a2ac0bcd19)"><path fill="#ffffff" d="M 150.921875 113.972656 L 153.140625 113.972656 L 153.140625 116.191406 L 150.921875 116.191406 Z M 150.921875 113.972656 " fill-opacity="1" fill-rule="nonzero"/></g></g><g clip-path="url(#24df0cca72)"><g clip-path="url(#b66d4bc7bd)"><path fill="#ffffff" d="M 126.285156 104.953125 L 128.503906 104.953125 L 128.503906 107.171875 L 126.285156 107.171875 Z M 126.285156 104.953125 " fill-opacity="1" fill-rule="nonzero"/></g></g><path stroke-linecap="round" transform="matrix(0.184338, 0.542629, -0.542629, 0.184338, 125.203546, 116.586763)" fill="none" stroke-linejoin="miter" d="M 0.997122 1.001796 L 6.316887 1.002105 " stroke="#ffc65c" stroke-width="2" stroke-opacity="1" stroke-miterlimit="4"/></svg>