<svg xmlns="http://www.w3.org/2000/svg" xmlns:xlink="http://www.w3.org/1999/xlink" width="500" zoomAndPan="magnify" viewBox="0 0 375 374.999991" height="500" preserveAspectRatio="xMidYMid meet" version="1.0"><defs><g/><clipPath id="e9a0fd5950"><path d="M 187.5 0 C 83.945312 0 0 83.945312 0 187.5 C 0 291.054688 83.945312 375 187.5 375 C 291.054688 375 375 291.054688 375 187.5 C 375 83.945312 291.054688 0 187.5 0 Z M 187.5 0 " clip-rule="nonzero"/></clipPath><clipPath id="09237181b1"><path d="M 22.175781 22.175781 L 352.824219 22.175781 L 352.824219 352.824219 L 22.175781 352.824219 Z M 22.175781 22.175781 " clip-rule="nonzero"/></clipPath><clipPath id="c284cc3c47"><path d="M 187.5 22.175781 C 96.191406 22.175781 22.175781 96.191406 22.175781 187.5 C 22.175781 278.808594 96.191406 352.824219 187.5 352.824219 C 278.808594 352.824219 352.824219 278.808594 352.824219 187.5 C 352.824219 96.191406 278.808594 22.175781 187.5 22.175781 Z M 187.5 22.175781 " clip-rule="nonzero"/></clipPath></defs><g clip-path="url(#e9a0fd5950)"><rect x="-37.5" width="450" fill="#ffc65c" y="-37.499999" height="449.999989" fill-opacity="1"/></g><g clip-path="url(#09237181b1)"><g clip-path="url(#c284cc3c47)"><path fill="#fd7ab4" d="M 22.175781 22.175781 L 352.824219 22.175781 L 352.824219 352.824219 L 22.175781 352.824219 Z M 22.175781 22.175781 " fill-opacity="1" fill-rule="nonzero"/></g></g><path stroke-linecap="butt" transform="matrix(2.449056, 0, 0, 2.449056, 64.968495, 5.045354)" fill="none" stroke-linejoin="miter" d="M 0.906066 58.451085 L 0.906066 55.14305 C 9.343629 55.14305 13.822396 48.841195 22.883606 45.534754 C 22.883606 45.534754 22.883606 48.946465 22.883606 55.14305 L 28.431025 55.14305 L 28.431025 58.451085 L 22.883606 58.451085 C 22.779931 66.028942 22.779931 76.469829 22.779931 89.048019 C 22.779931 97.483988 31.399325 95.244604 31.399325 95.244604 C 31.086704 98.240019 25.982696 102.587996 21.165788 102.587996 C 12.753745 102.587996 6.035594 98.968935 6.035594 87.772017 L 6.035594 66.236293 C 6.140864 61.21044 5.177483 58.451085 0.906066 58.451085 Z M 63.731622 100.999374 C 61.803264 100.035992 60.632532 97.276638 58.809444 93.110491 L 43.575574 62.486442 C 40.165459 55.559346 34.61804 54.701234 34.61804 54.701234 L 33.863604 53.112612 L 60.839882 53.112612 L 61.595913 54.701234 C 61.595913 54.701234 56.804526 55.45567 60.632532 63.033528 L 71.413154 84.776603 C 82.166661 62.173821 82.062986 62.486442 82.062986 62.486442 C 85.265751 55.559346 80.683309 54.701234 80.683309 54.701234 L 81.33407 53.112612 L 97.634996 53.112612 L 96.90608 54.701234 C 96.90608 54.701234 91.463931 55.45567 87.843276 63.033528 L 68.73036 103.135082 C 65.553115 111.02556 61.908534 116.467708 52.638379 116.467708 C 41.232516 116.467708 41.857757 103.760323 50.918966 103.551378 C 49.330344 106.234172 51.362377 109.958503 55.190383 109.958503 C 58.600498 109.958503 60.632532 107.613849 62.45562 103.656648 Z M 63.731622 100.999374 " stroke="#ffb1bd" stroke-width="14.666713" stroke-opacity="1" stroke-miterlimit="4"/><g fill="#421a7b" fill-opacity="1"><g transform="translate(67.187951, 252.399972)"><g><path d="M 0 -104.21875 L 0 -112.328125 C 20.640625 -112.328125 31.609375 -127.734375 53.8125 -135.828125 C 53.8125 -135.828125 53.8125 -127.46875 53.8125 -112.328125 L 67.390625 -112.328125 L 67.390625 -104.21875 L 53.8125 -104.21875 C 53.546875 -85.6875 53.546875 -60.078125 53.546875 -29.25 C 53.546875 -8.625 74.703125 -14.109375 74.703125 -14.109375 C 73.921875 -6.796875 61.390625 3.921875 49.625 3.921875 C 29 3.921875 12.53125 -4.96875 12.53125 -32.390625 L 12.53125 -85.15625 C 12.796875 -97.4375 10.453125 -104.21875 0 -104.21875 Z M 0 -104.21875 "/></g></g></g><g fill="#421a7b" fill-opacity="1"><g transform="translate(147.901012, 252.399972)"><g><path d="M 73.140625 0 C 68.4375 -2.34375 65.5625 -9.140625 61.125 -19.328125 L 23.765625 -94.296875 C 15.40625 -111.28125 1.828125 -113.375 1.828125 -113.375 L 0 -117.28125 L 66.09375 -117.28125 L 67.921875 -113.375 C 67.921875 -113.375 56.15625 -111.546875 65.5625 -93 L 91.953125 -39.703125 C 118.328125 -95.078125 118.078125 -94.296875 118.078125 -94.296875 C 125.90625 -111.28125 114.671875 -113.375 114.671875 -113.375 L 116.25 -117.28125 L 156.203125 -117.28125 L 154.375 -113.375 C 154.375 -113.375 141.0625 -111.546875 132.171875 -93 L 85.421875 5.21875 C 77.578125 24.546875 68.703125 37.875 45.96875 37.875 C 18.03125 37.875 19.59375 6.796875 41.796875 6.265625 C 37.875 12.796875 42.84375 21.9375 52.25 21.9375 C 60.609375 21.9375 65.5625 16.203125 70 6.53125 Z M 73.140625 0 "/></g></g></g></svg>